<svg xmlns="http://www.w3.org/2000/svg" viewBox="0 0 386.53 186.65"><title>404</title><circle cx="193.47" cy="106.9" r="79.75" fill="#5d2e66" opacity=".05"/><circle cx="193.92" cy="106.79" r="71.87" fill="#5d2e66" opacity=".1"/><path d="M290.73 12.06a3 3 0 0 0-4.18.23l-7.64 8.52a3 3 0 0 0 4.41 4l7.68-8.57a3 3 0 0 0-.27-4.18zM253.09 2.8a3 3 0 0 0-5.91.32l.62 11.43a3 3 0 0 0 5.91-.32zM304 48.47l-11.43.62a3 3 0 1 0 .32 5.91l11.43-.62a3 3 0 0 0-.32-5.91z" fill="#7e3d8e" opacity=".5"/><path d="M248.32 134l18.57-86.46c1.08-4.71-.58-10.64-5.29-11.72l-85.35-19.66a8.81 8.81 0 0 0-10.53 6.59l-19.59 85.19a8.81 8.81 0 0 0 6.59 10.53l25.84 5.86s-.66 13.93-11.16 21.23S191 157 206.31 130.8l32.4 7.45c4.71 1.09 8.53.43 9.61-4.25z" fill="#fff"/><path d="M172.77 152.57a21.6 21.6 0 0 1-3.2-.22c-4.07-.62-5.28-2.24-5.57-3.49-.25-1.08 0-2.75 2.54-4.52 8-5.55 9.94-15.37 10.39-18.83l-24.55-5.57a10.3 10.3 0 0 1-7.72-12.33l19.59-85.19a10.31 10.31 0 0 1 12.33-7.72l85.35 19.63c5.59 1.29 7.68 8 6.42 13.52l-18.57 86.44a6.94 6.94 0 0 1-4.39 5.38 12.34 12.34 0 0 1-7 0L207 132.51a42.52 42.52 0 0 1-19 16.62 38.61 38.61 0 0 1-15.23 3.44zm1.51-135.13a7.33 7.33 0 0 0-7.1 5.65l-19.59 85.19a7.31 7.31 0 0 0 5.47 8.73l25.84 5.86a1.5 1.5 0 0 1 1.17 1.53c0 .6-.82 14.76-11.8 22.39-1.27.88-1.33 1.38-1.33 1.39.06.17.91 1 3.74 1.28 8.32.9 25.07-3.56 34.32-19.46a1.51 1.51 0 0 1 1.63-.71l32.4 7.45a9.73 9.73 0 0 0 5.31.09c.82-.3 2-1 2.5-3.23l18.59-86.4c1-4.13-.5-9.1-4.16-9.95l-85.36-19.62a7.27 7.27 0 0 0-1.63-.19zm74 116.53z" fill="#5d2e66"/><path d="M192.67 102.3a8.68 8.68 0 0 1 1.23-3.14 5.59 5.59 0 0 1 2-1.83 6.24 6.24 0 0 1 2.56-.71 10.88 10.88 0 0 1 2.92.22 10.06 10.06 0 0 1 2.65.93 6.27 6.27 0 0 1 2 1.66 5.78 5.78 0 0 1 1.11 2.47 8.41 8.41 0 0 1-.1 3.38 8 8 0 0 1-1.22 3 6.08 6.08 0 0 1-4.54 2.63 9.61 9.61 0 0 1-2.8-.17 10.37 10.37 0 0 1-2.77-1 6.18 6.18 0 0 1-2.06-1.73 6 6 0 0 1-1.09-2.49 8.28 8.28 0 0 1 .11-3.22zm4.24-13.73l.63-3a15.82 15.82 0 0 1 1.21-3.7 13.06 13.06 0 0 1 2-3 15.8 15.8 0 0 1 2.89-2.52 34 34 0 0 1 4-2.32q2-1 3.41-1.82a13.1 13.1 0 0 0 2.36-1.71 7.41 7.41 0 0 0 1.52-2 10 10 0 0 0 .88-2.59 5.22 5.22 0 0 0-.78-4.18 6.86 6.86 0 0 0-4.5-2.51 18.18 18.18 0 0 0-6.33-.07 68.77 68.77 0 0 0-7.34 1.52l-2.31-9.92a40.8 40.8 0 0 1 4.23-1.16 43.3 43.3 0 0 1 4.64-.75 35.76 35.76 0 0 1 4.76-.19 26.15 26.15 0 0 1 4.59.52 26.82 26.82 0 0 1 7.33 2.56 16.41 16.41 0 0 1 5.09 4.1 13.2 13.2 0 0 1 2.62 5.41 15.31 15.31 0 0 1 0 6.52 17.36 17.36 0 0 1-1.52 4.49 14.13 14.13 0 0 1-2.48 3.42 19 19 0 0 1-3.52 2.78q-2 1.27-4.66 2.6-2 1-3.29 1.78a11.78 11.78 0 0 0-2.09 1.55 5.67 5.67 0 0 0-1.22 1.69 10.29 10.29 0 0 0-.69 2.23l-.51 2.46z" fill="#709dc9" stroke="#5d2e66" stroke-linecap="round" stroke-linejoin="round" stroke-width="3"/><path d="M102.34 140.14H85.92v28.26H57.84v-28.26H1.5v-20.05L59.43 32h26.49v85.72h16.42v22.39zm-44.5-22.39V91.12q0-2.29.16-5.17.09-2.89.23-6t.28-5.88q.14-2.8.28-4.9t.23-3h-.81q-1.68 3.92-3.78 8.3a93.78 93.78 0 0 1-4.8 8.77l-22.76 34.51h31zM385 140.14h-16.39v28.26h-28.07v-28.26h-56.35v-20.05L342.12 32h26.49v85.72H385v22.39zm-44.5-22.39V91.12q0-2.29.14-5.18.09-2.89.23-6t.28-5.88q.14-2.8.28-4.9t.23-3h-.84q-1.68 3.92-3.78 8.3a93.79 93.79 0 0 1-4.8 8.77l-22.76 34.51h31z" fill="#f2f2f2" stroke="#5d2e66" stroke-linecap="round" stroke-linejoin="round" stroke-width="3"/></svg>