<svg id="Layer_1" xmlns="http://www.w3.org/2000/svg" viewBox="126.5 198.6 459.7 163.6"><style>.st0{fill:#7e3d8e}.st1{fill:#fff}.st2{fill:#424242}</style><title>logos cloud teams</title><g id="logo"><path class="st0" d="M478 210.2h-85.1c-1.6 0-2.8 1.3-2.8 2.8v30.1c0 1.6 1.3 2.8 2.8 2.8h6.7c1.2 2.1 4.7 7.9 6.1 7.9s4.9-5.8 6.1-7.9H478c1.6 0 2.8-1.3 2.8-2.8V213c0-1.6-1.2-2.8-2.8-2.8z"/><path class="st1" d="M402.3 218.7c1-.1 3.5-.1 5.4-.1 4.5 0 6.2 2 6.2 4.6.1 1.8-1 3.5-2.7 4.3v.1c2 .4 3.4 2.3 3.3 4.4 0 3.9-3 5.6-7 5.6-1.7 0-4.1-.1-5.2-.1v-18.8zm3.3 3v4.8h2.2c1.5 0 2.8-.8 2.8-2.5 0-1.5-1.2-2.3-3-2.3h-2zm0 7.6v5c.7.1 1.4.1 2.2.1 2.2 0 3.4-.9 3.4-2.7 0-1.6-1.2-2.4-3.3-2.4h-2.3zm14.5-10.6H431v3.1h-7.6v4.7h6.8v3.1h-6.8v4.9h7.8v3.1h-11.1v-18.9zm14.5 0H450v3.1h-6v15.7h-3.3v-15.7h-6.1v-3.1zm23.5-.1h2.9l7.9 18.8h-3.5l-2-4.8h-8l-2 4.8h-3.3l8-18.8zm-1.4 11h5.5l-2.7-6.7-2.8 6.7z"/><path class="st2" d="M394.6 288.7c-6.4-6.2-6.4-16.4-.2-22.8 3.1-3.1 7.3-4.9 11.6-4.8 4.3-.1 8.6 1.4 11.8 4.3l-4.3 4.7c-2.1-1.7-4.8-2.6-7.5-2.6-2.6-.1-5.1.9-7 2.7-1.8 1.8-2.7 4.3-2.6 6.9-.1 2.6.9 5.2 2.7 7.1 1.9 1.8 4.4 2.8 7 2.6 2.7.1 5.4-.8 7.5-2.6l4.3 4.7c-3.3 2.9-7.5 4.4-11.8 4.3-4.4.2-8.5-1.5-11.5-4.5zm45.5-27.6v26.2h17.2v6h-23.6v-32.2h6.4zm34.3 27.6c-6.6-6.4-6.8-16.9-.5-23.5 6.4-6.6 16.9-6.8 23.5-.5 6.6 6.4 6.8 16.9.5 23.5-3.1 3.3-7.5 5.1-12 5.1-4.3.2-8.5-1.5-11.5-4.6zm11.5-1.4c2.6.1 5.2-1 7-2.9 3.6-4.1 3.6-10.3 0-14.4-3.8-3.9-10.1-3.9-13.9-.1l-.1.1c-3.6 4.1-3.6 10.3 0 14.4 1.8 2 4.4 3 7 2.9zm35.7-26.2v18.7c0 2.4.7 4.2 2.2 5.4 3.2 2.3 7.5 2.3 10.7 0 1.4-1.1 2.2-2.9 2.2-5.4v-18.7h6.4v20.4c0 3.3-1.5 6.3-4 8.4-5.9 4.6-14.1 4.6-20 0-2.5-2-4-5.1-4-8.4v-20.4h6.5zm37.2 32.2v-32.2h12.4c10 0 15 5.4 15 16.1s-5 16.1-15 16.1h-12.4zm12.4-6.4c5.7 0 8.6-3.2 8.6-9.7 0-6.5-2.8-9.7-8.6-9.7h-6v19.4h6zm-151.8 22.2v6h-10.7v26.2h-6.5v-26.2h-10.7v-6h27.9zm13.5 32.2v-32.2h23.7v6h-17.2v6.9h12.9v6h-12.9v7.3h17.2v6h-23.7zm37.2 0l12.9-32.2h6.5l12.9 32.2h-6.8l-1.9-4.9h-14.6l-1.9 5h-7.1zm16.3-23.6l-4.9 12.3h9.7l-4.8-12.3zm29.5 23.6v-32.2h2.2l14 15.9 14-15.9h2.2v32.2h-6.5v-18.7l-9.7 10.7-9.7-10.7v18.7h-6.5zm65-31.1c1.7.8 3.3 1.9 4.6 3.2l-4.3 4.3c-1.5-1.7-3.7-2.7-6-2.6-2.6 0-4.2.6-4.9 1.8-.7.9-.7 2.2 0 3.1.7.9 2.4 1.5 4.9 1.9 2.7.3 5.2 1.2 7.4 2.7 2.2 1.5 3.3 3.9 3.3 7.2 0 2.7-1.4 5.1-3.6 6.7-2.4 1.9-5.3 2.8-8.3 2.8-2.6.1-5.1-.4-7.5-1.3-1.9-.8-3.7-2-5.2-3.4l4.3-4.3c1.4 1.7 3.9 2.7 7.3 3 2.9 0 4.7-.6 5.4-1.8.7-1.1.7-2.5 0-3.6-.7-1.2-2.5-2-5.4-2.3-2.5-.3-4.9-1.1-7.1-2.4-2.1-1.3-3.2-3.5-3.2-6.7 0-2.8 1.3-5.4 3.7-6.9 2.2-1.6 4.8-2.5 7.5-2.6 2.5 0 4.8.4 7.1 1.2z"/><path class="st0" d="M312.8 251.6c-8.8-30.7-36.3-53.1-69-53.1-39.5 0-71.5 32.7-71.9 73.2h-.1c-25 0-45.2 20.2-45.2 45.2s20.2 45.2 45.2 45.2h129c30.9 0 55.9-25 56-55.8-.1-26.3-18.4-49-44-54.7z"/><path class="st1" d="M244.3 295.5c-3.1-2.2-6.4-2.8-9-1.4-2 1-3.6 3.1-4.7 6.1V274c0-1.7-.7-3.2-1.9-4.3-2.3-2-6-2.3-8.3-2.2v-.5c.1-2-.8-3.9-2.2-5.2-1.8-1.4-4-2.2-6.3-2.2-1.2-.1-2.3 0-3.5.1l-1.6.2v5.4c-3.3-1.5-7.7-1.1-8.2-1l-1.6.2v7.8c-2.6-.8-5.4-1-8.1-.8l-1.7.2V309l-.2 24.8-31.7 25.2c1.4.6 2.9 1.1 4.4 1.5.1-.1 21.3-17 28.2-22.6 1.4 2.7 3.9 4.8 6.9 5.6 1 .2 2-.5 2.2-1.6.1-.8-.2-1.5-.9-1.9l-.2-.1c-.1 0-5-1.5-5.1-6.1l.2-24.4v-34c2.2 0 4.8.3 5.8 1.2.2.1.3.3.3.5v28.7c-1 .6-1.8 1.3-2.5 2.2l-.1.1c-.5.9-.3 2 .6 2.6s2 .3 2.6-.6c0 0 3.2-4 15.6-4 8.8 0 13.1 3 14.9 4.7-3.8.4-7.5 1.9-10.5 4.3-3.1 2.7-4.9 6.6-5 10.7-.1 1 .7 1.9 1.7 2 .7 0 1.4-.3 1.7-1 .1-.2.2-.5.2-.8 0-4.6 3-8.7 7.3-10.2 2.4-.9 4.9-1.4 7.4-1.4h1.4c.2-12.8 2.9-16.1 4.6-16.9 1.4-.5 2.9-.3 4.1.5-1.6 6.6-3.2 23.2-3.4 25.1-.3 4.5-1.4 8.9-3.5 12.9-4.3 8.2-11.7 12.4-22 12.4l-16 13.8h6.6l11.8-10.1c13.3-.8 19.9-8.2 23.1-14.5 2.2-4.4 3.5-9.1 3.8-14 .5-5.9 2.3-21.8 3.6-25.9l.5-1.4-1.2-.8h-.1zm-37.6 7.2c-2 .2-4.1.7-6 1.4v-36c1.8 0 4.2.2 5.4 1.3.5.4.7 1 .7 1.7l-.1 31.6zm9.9-.3c-1.1-.1-2.3-.2-3.5-.2h-2.5v-39c1.6 0 3.9.2 5.1 1.3.7.6 1 1.5.9 2.3v35.6zm10.2 2.9c-1.9-1-3.9-1.8-6-2.2v-31.9h1.3c1.5 0 2.9.4 4.1 1.2.4.4.7.9.6 1.5v31.4zm18.5-84.2c-1.1 0-2.1.9-2.1 2.1v8c0 1.1.9 2.1 2.1 2.1 1.1 0 2.1-.9 2.1-2.1v-8c0-1.2-.9-2.1-2.1-2.1zm-21.2 21.4c.8.8 2.1.8 2.9 0s.8-2.1 0-2.9l-5.7-5.7c-.8-.8-2.1-.8-2.9 0s-.8 2.1 0 2.9l5.7 5.7zm42.5 0l5.7-5.7c.8-.8.8-2.1 0-2.9s-2.1-.8-2.9 0l-5.7 5.7c-.8.8-.8 2.1 0 2.9s2.1.8 2.9 0zm36.2 91.1c.9-1.5 1.3-3.2 1.3-5v-57.3l-1.7-.2c-2.7-.3-5.4 0-8 .7v-7l-1.7-.2c-.6-.1-5.4-.6-8.8 1.1v-5.5l-1.6-.2c-.7-.1-6.5-.8-9.9 2.1-1.5 1.3-2.3 3.2-2.2 5.2v1.7h-1.5c-2.3 0-4.6.8-6.4 2.2-1.3 1.1-2 2.8-2 4.5v17c-1.2-.5-2.6-.7-3.9-.5-2.6.4-4.9 1.9-6.2 4.1l-.5.8.3.9c.8 2.6 1.2 7.9 1 15.1-.1 5.6-.6 10.4-.6 10.5v.3l.1.3c.9 3.4 2.2 6.7 3.9 9.8 3.7 6.5 8.8 11.1 14.7 13.1l18 15.2h5.9l-22-18.6h-.1c-12-3.7-16.1-17.9-16.7-20 .2-2.5 1.5-18.4-.3-25.8.7-1 1.8-1.6 3-1.8 1.2-.1 2.5.3 3.5 1v23.8c-.1 1 .7 1.9 1.7 2 1 .1 1.9-.7 2-1.7v-45.3c0-.6.2-1.3.7-1.7 1.2-1 3.5-1.3 5.3-1.3h.1v26.5c0 1 .8 1.9 1.9 1.9s1.9-.8 1.9-1.9v-32c-.1-.9.3-1.7.9-2.3 1.3-1.1 3.6-1.3 5.3-1.3v35.4c.2 1.1 1.3 1.8 2.4 1.5.8-.2 1.4-.8 1.6-1.6v-27.7c0-.6.2-1.2.7-1.6 1.2-1.1 3.8-1.4 6-1.4v30.2c-.3 1 .4 2.1 1.4 2.4 1 .3 2.1-.4 2.4-1.4 0-.1.1-.3.1-.4v-22.5c0-.2.1-.4.3-.6.9-.9 3.5-1.2 5.6-1.2v54s.3 4.6-6.4 7c-1 .3-1.6 1.3-1.3 2.3.3 1 1.3 1.6 2.3 1.3.1 0 .2 0 .2-.1 1.9-.6 3.8-1.6 5.3-2.9l25.1 19.9s2.3-1.1 3.6-1.9c-.3-.1-22.8-17.8-26.7-20.9z"/></g></svg>