<svg xmlns="http://www.w3.org/2000/svg" viewBox="0 0 459.71 163.59"><title>logo</title><path d="M268 74.44a15.62 15.62 0 0 1-4.63-11.55 15.83 15.83 0 0 1 16.09-16 17.44 17.44 0 0 1 11.84 4.3l-4.3 4.66a11.88 11.88 0 0 0-7.54-2.58 9.46 9.46 0 0 0-7 2.71 9.37 9.37 0 0 0-2.65 6.88 9.66 9.66 0 0 0 2.72 7.14 9.51 9.51 0 0 0 7 2.64 11.55 11.55 0 0 0 7.5-2.56l4.3 4.71a17.38 17.38 0 0 1-11.84 4.3A15.68 15.68 0 0 1 268 74.44zm45.55-27.6v26.22h17.19v6h-23.61V46.84h6.45zm34.28 27.6A15.61 15.61 0 0 1 343.24 63a16.11 16.11 0 1 1 32.23 0 16.25 16.25 0 0 1-27.61 11.44zm11.52-1.39a9.05 9.05 0 0 0 7-2.9 11 11 0 0 0 0-14.39 9.85 9.85 0 0 0-14 0 11 11 0 0 0 0 14.39 9.1 9.1 0 0 0 7.03 2.91zM395 46.84v18.7q0 3.65 2.15 5.37a9.25 9.25 0 0 0 10.74 0q2.11-1.72 2.11-5.37v-18.7h6.45v20.41a10.68 10.68 0 0 1-4 8.38 16.24 16.24 0 0 1-20 0 10.67 10.67 0 0 1-4-8.38V46.84H395zm37.25 32.23V46.82h12.42q15 0 15 16.13t-15 16.11h-12.41zm12.42-6.42q8.57 0 8.59-9.69t-8.59-9.67h-6v19.36h6zM292.8 94.84v6h-10.74v26.21h-6.45v-26.19h-10.74v-6h27.93zm13.5 32.23v-32.2h23.68v6h-17.23v6.88h12.91v6h-12.91v7.33h17.19v6h-23.63zm37.27 0l12.89-32.23h6.45L375.78 127h-6.85l-1.93-4.87h-14.62l-1.93 4.94h-6.87zm16.29-23.63L355 115.68h9.67zm29.53 23.63V94.84h2.15l14 15.9 14-15.9h2.15v32.23h-6.49v-18.69l-9.67 10.74-9.67-10.74v18.69h-6.45zm64.92-31.15a15 15 0 0 1 4.62 3.22l-4.3 4.3a7.4 7.4 0 0 0-6-2.58q-3.87 0-4.94 1.83a2.51 2.51 0 0 0 0 3.12q1.07 1.29 4.94 1.93a16 16 0 0 1 7.41 2.69q3.33 2.26 3.33 7.2a8.26 8.26 0 0 1-3.56 6.66 13 13 0 0 1-8.28 2.79 19.08 19.08 0 0 1-7.5-1.29 16.24 16.24 0 0 1-5.16-3.44l4.3-4.3q2.15 2.58 7.3 3 4.3 0 5.36-1.83a3.4 3.4 0 0 0 0-3.65q-1.06-1.83-5.36-2.26a17.32 17.32 0 0 1-7.09-2.36q-3.22-1.93-3.22-6.66a8 8 0 0 1 3.66-6.86 12.9 12.9 0 0 1 7.53-2.59 18 18 0 0 1 6.96 1.08z" fill="#424242"/><path d="M186.22 53.09C177.47 22.41 149.9 0 117.23 0c-39.47 0-71.5 32.69-71.89 73.17h-.13a45.21 45.21 0 0 0 0 90.43h129a55.9 55.9 0 0 0 12.01-110.51z" fill="#7e3d8e"/><path d="M117.76 96.91c-3.09-2.24-6.37-2.77-9-1.44-2.05 1-3.62 3.06-4.72 6.12V75.42a5.64 5.64 0 0 0-1.91-4.34c-2.28-2-6-2.27-8.27-2.22v-.51a6.63 6.63 0 0 0-2.24-5.19A10.35 10.35 0 0 0 85.33 61a18.71 18.71 0 0 0-3.45.1l-1.62.23v5.44c-3.3-1.54-7.67-1.06-8.24-1l-1.66.23v7.83a21 21 0 0 0-8.11-.75l-1.71.16v37.23l-.2 24.79-31.66 25.22a34.31 34.31 0 0 0 4.41 1.47c.15-.09 21.27-17 28.18-22.57a11.4 11.4 0 0 0 6.89 5.62 1.89 1.89 0 0 0 1.25-3.5l-.24-.11c-.05 0-5-1.45-5.05-6.13l.2-24.42v-34.1c2.21 0 4.84.3 5.79 1.17a.65.65 0 0 1 .26.55v28.74a8.34 8.34 0 0 0-2.51 2.22l-.07.12a1.86 1.86 0 0 0 3.21 1.95s3.18-4.05 15.57-4.05c8.84 0 13.13 3 14.88 4.72a20.39 20.39 0 0 0-10.51 4.27 14.49 14.49 0 0 0-5 10.73 1.86 1.86 0 0 0 3.49 1 1.89 1.89 0 0 0 .24-.81A10.91 10.91 0 0 1 97 117.21a21.43 21.43 0 0 1 7.43-1.44h1.44c.16-12.83 2.94-16.12 4.58-16.94a4.52 4.52 0 0 1 4.1.48c-1.56 6.56-3.17 23.17-3.36 25.15a32.76 32.76 0 0 1-3.45 12.86c-4.27 8.22-11.67 12.41-22 12.44h-.05l-16 13.79h6.65L88 153.48c13.29-.8 19.91-8.23 23.14-14.53a36.42 36.42 0 0 0 3.79-14c.55-5.89 2.27-21.84 3.59-25.86l.48-1.37-1.17-.79zm-37.58 7.19a30.81 30.81 0 0 0-6 1.35v-36c1.75 0 4.17.23 5.35 1.28a2 2 0 0 1 .69 1.67v31.7zm9.89-.22c-1.11-.1-2.28-.16-3.53-.16q-1.31 0-2.51.05V64.72c1.64 0 3.88.23 5.1 1.29a2.86 2.86 0 0 1 .94 2.34v35.54zm10.18 2.88a23.43 23.43 0 0 0-6-2.24V72.63h1.27a7.24 7.24 0 0 1 4.14 1.23 1.87 1.87 0 0 1 .64 1.52v31.35zM118.77 22.53a2.07 2.07 0 0 0-2.07 2.07v8a2.07 2.07 0 0 0 4.15 0v-8a2.07 2.07 0 0 0-2.08-2.07zM97.54 43.91a2.07 2.07 0 0 0 2.93-2.91l-5.67-5.7a2.07 2.07 0 0 0-2.93 2.93zM140 43.91l5.67-5.67a2.07 2.07 0 0 0-2.93-2.93L137.08 41a2.07 2.07 0 0 0 2.92 2.91zM176.28 135a9.47 9.47 0 0 0 1.29-4.95v-57.3l-1.71-.16a20.52 20.52 0 0 0-8 .73v-7l-1.66-.2c-.62-.07-5.38-.57-8.84 1.08v-5.55l-1.62-.23c-.66-.09-6.51-.82-9.87 2.1a6.61 6.61 0 0 0-2.23 5.16v1.7h-1.47a10.47 10.47 0 0 0-6.38 2.18 5.82 5.82 0 0 0-2 4.5v17a8.47 8.47 0 0 0-3.79-.46 8.78 8.78 0 0 0-6.23 4.11l-.53.76.28.89c.83 2.63 1.17 7.86 1 15.12-.15 5.59-.58 10.41-.58 10.46v.29l.06.29a39.67 39.67 0 0 0 3.92 9.75c3.69 6.55 8.76 11.06 14.71 13.1l18 15.22h5.81L144.4 145h-.06c-12-3.68-16.13-17.92-16.68-20 .21-2.53 1.45-18.43-.31-25.76a4.73 4.73 0 0 1 3-1.84 5.67 5.67 0 0 1 3.49 1v23.77a1.87 1.87 0 1 0 3.73 0v-45a2 2 0 0 1 .69-1.67c1.16-1 3.52-1.28 5.26-1.28h.09v26.32a2 2 0 0 0 0 .22 1.88 1.88 0 1 0 3.76 0 2 2 0 0 0 0-.22V68.68a2.84 2.84 0 0 1 .93-2.31c1.26-1.09 3.57-1.34 5.25-1.32v35.42a2 2 0 0 0 3.93-.11 2 2 0 0 0-.05-.45V72.69a1.93 1.93 0 0 1 .66-1.57c1.21-1.07 3.84-1.39 5.95-1.37V100a1.94 1.94 0 1 0 3.82.52 1.9 1.9 0 0 0 0-.4V78a.67.67 0 0 1 .26-.57c.94-.86 3.46-1.17 5.63-1.16v54.05s.34 4.62-6.43 7a1.89 1.89 0 1 0 1.19 3.58 15.91 15.91 0 0 0 5.33-2.93L199 157.81s2.31-1.15 3.58-1.94c.03-.07-22.42-17.77-26.3-20.87z" fill="#fff"/></svg>