<svg id="Layer_1" xmlns="http://www.w3.org/2000/svg" viewBox="0 0 339.7 123.6"><style>.st0{enable-background:new}.st1{fill:#fff}</style><title>logos cloud teams</title><g id="background"><g class="st0"><path class="st1" d="M289.8 104c.8 0 2.6-.1 4-.1 3.3 0 4.6 1.5 4.6 3.5 0 1.6-.8 2.6-2 3.2 1.4.3 2.5 1.4 2.5 3.3 0 2.9-2.2 4.2-5.2 4.2-1.3 0-3.1 0-3.9-.1v-14zm2.5 2.2v3.5h1.7c1.1 0 2.1-.6 2.1-1.9 0-1.1-.9-1.7-2.2-1.7-.6.1-1.2.1-1.6.1zm0 5.7v3.7c.3 0 .9.1 1.6.1 1.7 0 2.6-.7 2.6-2 0-1.2-.9-1.8-2.4-1.8h-1.8zm10.9-8h8.1v2.3h-5.6v3.5h5v2.3h-5v3.6h5.8v2.3h-8.3v-14z"/></g><g class="st0"><path class="st1" d="M313.9 103.9h11.5v2.3h-4.5v11.7h-2.5v-11.7h-4.5v-2.3z"/></g><g class="st0"><path class="st1" d="M331.5 103.9h2.2l5.9 14H337l-1.5-3.6h-6l-1.5 3.6h-2.5l6-14zm-1 8.2h4.1l-2-5-2.1 5z"/></g></g><path class="st1" d="M204.3 55.7c-4.3-4.3-4.4-11.2-.1-15.6 2.1-2.1 4.9-3.3 7.9-3.3 3-.1 5.8 1 8.1 2.9l-2.9 3.2c-1.5-1.2-3.3-1.8-5.1-1.8-3.5-.2-6.4 2.5-6.6 5.9v.6c-.1 1.8.6 3.6 1.8 4.9 1.3 1.2 3 1.9 4.8 1.8 1.9 0 3.7-.6 5.1-1.7l2.9 3.2c-2.2 2-5.1 3-8.1 2.9-3 .2-5.8-.9-7.8-3zm32.2-18.8v17.9h11.7v4.1h-16.1v-22h4.4zm24.6 18.8c-4.5-4.3-4.6-11.5-.3-16s11.5-4.6 16-.3 4.6 11.5.3 16c-2.1 2.2-5.1 3.5-8.2 3.5-2.9.1-5.8-1.1-7.8-3.2zm7.8-.9c1.8.1 3.5-.7 4.8-2 2.4-2.8 2.4-7 0-9.8-2.6-2.6-6.9-2.6-9.5 0-2.4 2.8-2.4 7 0 9.8 1.2 1.3 2.9 2 4.7 2zm25.5-17.9v12.7c-.1 1.4.4 2.7 1.5 3.7 2.2 1.6 5.1 1.6 7.3 0 1-.9 1.6-2.3 1.5-3.7V36.9h4.4v13.9c0 2.2-1 4.3-2.7 5.7-4 3.1-9.6 3.1-13.6 0a7.41 7.41 0 0 1-2.7-5.7V36.9h4.3zm26.6 22v-22h8.5c6.8 0 10.2 3.7 10.2 11s-3.4 11-10.2 11H321zm8.5-4.4c3.9 0 5.8-2.2 5.9-6.6s-1.9-6.6-5.9-6.6h-4.1v13.2h4.1zM220.1 70.9V75h-7.3v17.9h-4.4V75h-7.3v-4.1h19zm10.4 22v-22h16.1V75h-11.8v4.7h8.8v4.1h-8.8v5h11.7v4.1h-16zm26.6 0l8.8-22h4.4l8.8 22h-4.7l-1.3-3.4h-10l-1.3 3.4h-4.7zm11.1-16.1l-3.3 8.4h6.6l-3.3-8.4zm21.4 16.1v-22h1.4l9.5 10.8 9.5-10.8h1.5v22h-4.4V80.2l-6.6 7.3-6.5-7.3v12.7h-4.4zM335 71.6c1.2.5 2.2 1.3 3.2 2.2l-2.9 2.9c-1-1.2-2.5-1.8-4.1-1.8-1.8 0-2.9.4-3.4 1.2-.5.6-.5 1.5 0 2.1.5.6 1.6 1 3.4 1.3 1.8.2 3.5.8 5 1.8 1.6 1.1 2.4 3 2.3 4.9 0 1.8-.9 3.5-2.4 4.5-1.6 1.3-3.6 1.9-5.7 1.9-1.7.1-3.5-.2-5.1-.9-1.3-.5-2.5-1.3-3.5-2.3l2.9-2.9c1 1.2 2.6 1.9 5 2 2 0 3.2-.4 3.7-1.2.5-.8.5-1.7 0-2.5s-1.7-1.3-3.7-1.5c-1.7-.2-3.4-.7-4.8-1.6-1.5-.9-2.2-2.4-2.2-4.5 0-1.9.9-3.7 2.5-4.7 1.5-1.1 3.3-1.7 5.1-1.8 1.6.1 3.2.4 4.7.9zm-161 9.8c0-19.9-13.8-37-33.2-41.3C134.2 16.9 113.3 0 88.7 0c-29.8 0-54 24.7-54.3 55.3h-.1C15.4 55.3 0 70.6 0 89.4c0 14.1 8.6 26.8 21.7 31.9.7.3 1.4.5 2.1.7l1.3.4c.1-.1 16.1-12.9 21.3-17.1 1.1 2.1 3 3.6 5.2 4.3.8.1 1.5-.4 1.6-1.2.1-.6-.2-1.1-.7-1.4l-.2-.1s-3.8-1.1-3.8-4.6l.1-18.5V58c1.7 0 3.6.2 4.4.9.1.1.2.3.2.4V81c-.7.4-1.4 1-1.9 1.7v.1c-.4.7-.1 1.5.6 1.9.6.3 1.4.1 1.8-.4 0 0 2.4-3.1 11.8-3.1 6.7 0 9.9 2.2 11.2 3.6-2.9.3-5.7 1.4-7.9 3.2-2.4 2.1-3.7 5-3.8 8.2-.1.8.5 1.4 1.3 1.5.6 0 1.1-.2 1.4-.8.1-.2.2-.4.2-.6 0-3.5 2.2-6.6 5.5-7.7 1.8-.7 3.7-1.1 5.6-1.1h1c.1-9.7 2.2-12.2 3.5-12.8 1-.4 2.2-.3 3.1.4-1.2 5-2.4 17.5-2.5 19-.2 3.4-1.1 6.7-2.6 9.7-3.2 6.2-8.8 9.4-16.6 9.4l-12.1 10.4H126l-16.6-14c-9.1-2.8-12.2-13.5-12.6-15.1.2-1.9 1.1-13.9-.2-19.5.6-.7 1.4-1.2 2.3-1.4.9-.1 1.9.2 2.6.7v18c0 .8.6 1.4 1.4 1.4s1.4-.6 1.4-1.4v-34c0-.5.2-.9.5-1.3.9-.8 2.7-1 4-1h.1v20.2c0 .8.6 1.4 1.4 1.4.8 0 1.4-.6 1.4-1.4V52c0-.7.2-1.3.7-1.7 1.2-.8 2.6-1.1 4-1V76c0 .8.7 1.5 1.5 1.5s1.5-.7 1.5-1.5V55c0-.5.2-.9.5-1.2.9-.8 2.9-1 4.5-1v22.8c0 .1-.1.3-.1.4 0 .8.7 1.5 1.5 1.5s1.5-.7 1.5-1.5V59c0-.2.1-.3.2-.4.7-.6 2.6-.9 4.3-.9v40.8s.3 3.5-4.9 5.3c-.8.2-1.2 1.1-.9 1.8.2.6.7 1 1.3 1 .2 0 .3 0 .5-.1 1.5-.5 2.8-1.2 4-2.2l19 15s1.8-.9 2.7-1.5c12.7-7.6 20.5-21.5 20.5-36.4zM60.7 78.7c-1.6.2-3.1.5-4.6 1V52.5c1.3 0 3.1.2 4 1 .4.3.6.8.5 1.3l.1 23.9zm7.4-.2c-.8-.1-1.7-.1-2.7-.1h-1.9V48.9c1.4-.1 2.7.3 3.9 1 .5.4.8 1.1.7 1.8v26.8zm7.7 2.2c-1.4-.8-3-1.3-4.6-1.7V54.9h1c1.1 0 2.2.3 3.1.9.3.3.5.7.5 1.1v23.8zm.2-47.5c-.6.6-1.6.6-2.2 0l-4.3-4.3c-.6-.6-.6-1.6 0-2.2.6-.6 1.6-.6 2.2 0L76 31c.6.6.6 1.6 0 2.2zm15.4-8.5c-.1.9-.8 1.5-1.7 1.4-.8-.1-1.4-.7-1.4-1.4v-6.1c-.1-.9.6-1.6 1.4-1.7.9-.1 1.6.6 1.7 1.4v6.4zm18.8 4.2l-4.3 4.3c-.6.6-1.6.6-2.2 0-.6-.6-.6-1.6 0-2.2l4.3-4.3c.6-.6 1.6-.6 2.2 0 .6.6.6 1.6 0 2.2z" id="logo"/></svg>