<svg xmlns="http://www.w3.org/2000/svg" viewBox="0 0 332.42 310.64"><title>tutorial-user</title><circle cx="166.77" cy="155.61" r="107.33" fill="#5d2e66" opacity=".05"/><circle cx="167.37" cy="155.46" r="96.72" fill="#5d2e66" opacity=".1"/><rect x="70.41" y="100.52" width="142.33" height="100.07" rx="11.16" ry="11.16" transform="rotate(-12.96 141.63 150.612)" fill="#fff" stroke="#5d2e66" stroke-linejoin="round" stroke-width="3"/><path d="M171.16 233.67a7.24 7.24 0 0 0-14.22 2 4.56 4.56 0 0 0 0 9.13h13a5.64 5.64 0 0 0 1.22-11.13z" fill="none" opacity=".1"/><path d="M172.25 233.56a7.24 7.24 0 0 0-14.22 2 4.56 4.56 0 0 0 0 9.13h13a5.64 5.64 0 0 0 1.22-11.13z" fill="#5d2e66" opacity=".1"/><path d="M172.25 233.56a7.24 7.24 0 0 0-14.22 2 4.56 4.56 0 0 0 0 9.13h13a5.64 5.64 0 0 0 1.22-11.13z" fill="none" stroke="#5d2e66" stroke-miterlimit="10" stroke-width="3"/><path fill="#5d2e66" opacity=".1" d="M133.09 127.33l-14.11 50.85-12.83-15.33-16.17 8.83 12.19-38.08M63.495 128.648L202.2 96.728l2.86 12.435-138.703 31.92zM140.17 126.35l33.35 40.89 5.59-19.2 18.36 1.59L171 119.66"/><path fill="#ffe576" stroke="#5d2e66" stroke-miterlimit="10" stroke-width="3" d="M120.847 116.298l26.575-6.116 19.516 84.804-26.575 6.116z"/><path d="M232.71 17.22a2.07 2.07 0 0 0-2.78.92l-3.6 7.17a2.07 2.07 0 0 0 3.67 1.86l3.6-7.17a2.07 2.07 0 0 0-.89-2.78zM205.56 17.87a2.07 2.07 0 0 0-3.94 1.3l2.52 7.61a2.07 2.07 0 1 0 3.94-1.3zM248.41 39.39l-7.61 2.52a2.07 2.07 0 0 0 1.3 3.94l7.61-2.52a2.07 2.07 0 0 0-1.3-3.94z" fill="#7e3d8e" opacity=".5"/><path d="M233.17 212h-81.11c-15.82 0-15.82 15.82-15.82 15.82v12.68" fill="none" stroke="#5d2e66" stroke-linecap="round" stroke-linejoin="round" stroke-width="3"/><path fill="#ffe576" stroke="#5d2e66" stroke-miterlimit="10" stroke-width="3" d="M129.84 114.22l-14.11 50.84-12.83-15.33-16.17 8.83 12.19-38.08M137.12 111.87l33.36 40.89 5.58-19.2 18.36 1.59-26.47-29.97"/><rect x="43.73" y="76.15" width="172.23" height="36.79" rx="7.44" ry="7.44" transform="rotate(-12.96 129.892 94.568)" fill="#fff" stroke="#5d2e66" stroke-linejoin="round" stroke-width="3"/><path fill="#ffe576" stroke="#5d2e66" stroke-miterlimit="10" stroke-width="3" d="M106.942 80.953L144.5 72.31l8.237 35.794-37.558 8.643z"/><path fill="#fea0a2" stroke="#5d2e66" stroke-linecap="round" stroke-miterlimit="10" stroke-width="3" d="M14.08 52.23l3.1 13.47M22.71 57.33l-13.47 3.1M34.75 33.08l1.68 7.3"/><ellipse cx="144.64" cy="50.83" rx="28.42" ry="13.08" transform="rotate(-45 144.635 50.83)" fill="#ffe576" stroke="#5d2e66" stroke-miterlimit="10" stroke-width="3"/><ellipse cx="97.28" cy="60.1" rx="13.08" ry="28.42" transform="rotate(-71.01 97.278 60.105)" fill="#ffe576" stroke="#5d2e66" stroke-miterlimit="10" stroke-width="3"/><path fill="#fea0a2" stroke="#5d2e66" stroke-linecap="round" stroke-miterlimit="10" stroke-width="3" d="M39.43 35.85l-7.3 1.68"/><circle cx="5.4" cy="38.21" r="3.9" transform="rotate(-12.96 5.426 38.205)" fill="#fea0a2" stroke="#5d2e66" stroke-linecap="round" stroke-miterlimit="10" stroke-width="3"/><circle cx="43.76" cy="71.37" r="3.9" transform="rotate(-12.96 43.79 71.41)" fill="#fea0a2" stroke="#5d2e66" stroke-linecap="round" stroke-miterlimit="10" stroke-width="3"/><circle cx="21.9" cy="78.43" r="1.97" transform="rotate(-12.96 21.9 78.467)" fill="#5d2e66" stroke="#5d2e66" stroke-linecap="round" stroke-miterlimit="10" stroke-width="3"/><circle cx="32.29" cy="53.67" r="1.97" transform="rotate(-12.96 32.292 53.697)" fill="#5d2e66" stroke="#5d2e66" stroke-linecap="round" stroke-miterlimit="10" stroke-width="3"/><circle cx="124.15" cy="70.05" r="6.14" fill="#ffe576" stroke="#5d2e66" stroke-miterlimit="10" stroke-width="3"/><path d="M215.45 74.23c-.07-.64-.14-1.28-.17-1.92A23.43 23.43 0 0 1 221.19 56a19.13 19.13 0 0 0-24.57-6.65 8.07 8.07 0 0 1-3.94 7.65 7.31 7.31 0 0 1-6.27 5.43 19 19 0 0 0-.45 4.09A19.17 19.17 0 0 0 215 83a9 9 0 0 1 .45-8.77z" fill="#5d2e66" opacity=".1"/><circle cx="210.13" cy="60.68" r="19.19" fill="#fff" stroke="#5d2e66" stroke-linecap="round" stroke-linejoin="round" stroke-width="3"/><path fill="none" stroke="#a054b2" stroke-linecap="round" stroke-linejoin="round" stroke-width="3" d="M201.86 64.31l5.88 3.74 9.85-15.11"/></svg>