<svg xmlns="http://www.w3.org/2000/svg" viewBox="0 0 332.42 310.64"><title>tutorial-user</title><circle cx="166.08" cy="156.81" r="107.33" fill="#5d2e66" opacity=".05"/><circle cx="166.67" cy="156.66" r="96.72" fill="#5d2e66" opacity=".1"/><path d="M257 213.55H69.79a11.17 11.17 0 0 1-11.14-11.14v-17.94H268.1v17.94a11.17 11.17 0 0 1-11.1 11.14z" fill="#fff"/><path d="M134.52 244.34c10.44 0 8.1-43.64 8.1-43.64a3.07 3.07 0 0 1 2.94-3.18h37.33a3.07 3.07 0 0 1 2.94 3.18s-1.45 43.55 7.48 43.64h-58.79z" fill="#fff" stroke="#5d2e66" stroke-miterlimit="10" stroke-width="3"/><path fill="#fff" stroke="#5d2e66" stroke-linecap="round" stroke-miterlimit="10" stroke-width="3" d="M119.91 244.34h88.62"/><path d="M257 213.55H69.79a11.17 11.17 0 0 1-11.14-11.14v-17.94H268.1v17.94a11.17 11.17 0 0 1-11.1 11.14z" fill="#f2f2f2"/><rect x="58.65" y="75.44" width="209.44" height="138.12" rx="11.56" ry="11.56" fill="#fff" stroke="#5d2e66" stroke-miterlimit="10" stroke-width="3"/><rect x="70.94" y="117.33" width="38.74" height="54.62" rx="3.13" ry="3.13" fill="#5d2e66" opacity=".1"/><rect x="118.43" y="117.33" width="38.74" height="54.62" rx="3.13" ry="3.13" fill="#5d2e66" opacity=".1"/><rect x="166.08" y="117.33" width="38.74" height="54.62" rx="3.13" ry="3.13" fill="#5d2e66" opacity=".1"/><rect x="212.85" y="117.33" width="38.74" height="54.62" rx="3.13" ry="3.13" fill="#5d2e66" opacity=".1"/><rect x="74.99" y="112.39" width="38.74" height="54.62" rx="3.13" ry="3.13" fill="#fff" stroke="#5d2e66" stroke-miterlimit="10" stroke-width="3"/><rect x="122.32" y="112.39" width="38.74" height="54.62" rx="3.13" ry="3.13" fill="#fff" stroke="#5d2e66" stroke-miterlimit="10" stroke-width="3"/><rect x="74.99" y="112.39" width="38.74" height="54.62" rx="3.13" ry="3.13" fill="#fea0a2" stroke="#5d2e66" stroke-miterlimit="10" stroke-width="3"/><path d="M257 213.55H69.79a11.17 11.17 0 0 1-11.14-11.14v-14.85H268.1v14.85a11.17 11.17 0 0 1-11.1 11.14z" fill="#f2f2f2" stroke="#5d2e66" stroke-linecap="round" stroke-miterlimit="10" stroke-width="3"/><rect x="170.16" y="112.39" width="38.74" height="54.62" rx="3.13" ry="3.13" fill="#fff" stroke="#5d2e66" stroke-miterlimit="10" stroke-width="3"/><rect x="122.32" y="112.39" width="38.74" height="54.62" rx="3.13" ry="3.13" fill="#fea0a2" stroke="#5d2e66" stroke-miterlimit="10" stroke-width="3"/><circle cx="164.22" cy="200.61" r="6.92" fill="#5d2e66" opacity=".1"/><rect x="170.16" y="112.39" width="38.74" height="54.62" rx="3.13" ry="3.13" fill="#fea0a2" stroke="#5d2e66" stroke-miterlimit="10" stroke-width="3"/><circle cx="164.22" cy="200.51" r="6.92" fill="none" stroke="#5d2e66" stroke-miterlimit="10" stroke-width="3"/><rect x="74.99" y="136.05" width="38.74" height="30.96" rx="2" ry="2" fill="#f2f2f2" stroke="#5d2e66" stroke-miterlimit="10" stroke-width="3"/><rect x="122.57" y="136.05" width="38.74" height="30.96" rx="2" ry="2" fill="#f2f2f2" stroke="#5d2e66" stroke-miterlimit="10" stroke-width="3"/><rect x="170.57" y="136.05" width="37.96" height="30.96" rx="1.98" ry="1.98" fill="#f2f2f2" stroke="#5d2e66" stroke-miterlimit="10" stroke-width="2.97"/><path fill="#7e3d8e" stroke="#5d2e66" stroke-linecap="round" stroke-miterlimit="10" stroke-width="3" opacity=".5" d="M221.15 91.51h-20.89M199.97 146.35h-20.88M199.97 155.31h-20.88M152.14 146.35h-20.89M152.14 155.31h-20.89M104.8 146.35H83.91M104.8 155.31H83.91"/><path fill="#fff" stroke="#5d2e66" stroke-miterlimit="10" stroke-width="3" d="M74.99 136.05h38.74M121.73 136.05h38.74M171.03 136.05h38.74"/><path d="M89.39 92.47a6.72 6.72 0 0 0-13.2 1.88 4.24 4.24 0 0 0 0 8.47h12.08a5.24 5.24 0 0 0 1.12-10.35z" fill="none" opacity=".1"/><path d="M90.4 92.36a6.72 6.72 0 0 0-13.2 1.88 4.24 4.24 0 0 0 0 8.47h12.08a5.24 5.24 0 0 0 1.12-10.35z" fill="#5d2e66" opacity=".1"/><path d="M90.4 92.36a6.72 6.72 0 0 0-13.2 1.88 4.24 4.24 0 0 0 0 8.47h12.08a5.24 5.24 0 0 0 1.12-10.35z" fill="none" stroke="#5d2e66" stroke-miterlimit="10" stroke-width="3"/><path d="M166 0a3.11 3.11 0 0 0-3.1 3.12v12a3.11 3.11 0 0 0 6.22 0v-12A3.11 3.11 0 0 0 166 0zM130.13 19.22a3.11 3.11 0 0 0-4.39 4.41l8.52 8.48a3.11 3.11 0 1 0 4.39-4.41zM202 19.07l-8.48 8.52a3.11 3.11 0 0 0 4.42 4.41l8.48-8.52a3.11 3.11 0 0 0-4.42-4.41z" fill="#7e3d8e" opacity=".5"/><path fill="#5d2e66" opacity=".1" d="M141.94 222.71h43.51v-9.16h-42.63l-.88 9.16z"/></svg>