<svg xmlns="http://www.w3.org/2000/svg" viewBox="0 0 332.42 310.64"><title>tutorial-user</title><circle cx="163.75" cy="156.18" r="107.33" fill="#5d2e66" opacity=".05"/><circle cx="164.34" cy="156.03" r="96.72" fill="#5d2e66" opacity=".1"/><path d="M93.21 216.17h96.25c15.82 0 15.82 15.82 15.82 15.82v7" fill="none" stroke="#5d2e66" stroke-linecap="round" stroke-linejoin="round" stroke-width="3"/><path d="M314 42.77a2.07 2.07 0 0 0-2.78.92l-3.6 7.17a2.07 2.07 0 0 0 3.71 1.86l3.6-7.17a2.07 2.07 0 0 0-.93-2.78zM286.84 43.43a2.07 2.07 0 0 0-3.94 1.3l2.52 7.61a2.07 2.07 0 1 0 3.94-1.3zM329.69 64.95l-7.61 2.52a2.07 2.07 0 0 0 1.3 3.94l7.62-2.53a2.07 2.07 0 0 0-1.31-3.93z" fill="#7e3d8e" opacity=".5"/><circle cx="147.86" cy="229.17" r="4.01" transform="rotate(-51.62 147.878 229.177)" fill="#fea0a2" stroke="#5d2e66" stroke-miterlimit="10" stroke-width="3"/><path d="M287.58 157.9l-19-89.85a9.26 9.26 0 0 0-10.94-7.12L112.05 91.72a9.26 9.26 0 0 0-7.12 10.94l19 89.85a9.26 9.26 0 0 0 10.94 7.12l27.22-5.84s5.53 13.57-1.25 25.17 27.55.44 30.55-31.28l89.06-18.84a9.26 9.26 0 0 0 7.13-10.94z" fill="#fff" stroke="#5d2e66" stroke-linejoin="round" stroke-width="3"/><path d="M274.33 100.69L168.51 123a4.75 4.75 0 0 1-5.62-3.66l-2.11-10a4.75 4.75 0 0 1 3.66-5.62l105.83-22.35c2.55-.54 6.61 18.78 4.06 19.32z" fill="#5d2e66" opacity=".1"/><rect x="166.27" y="82.56" width="136.74" height="19.75" rx="5.11" ry="5.11" transform="rotate(-11.88 234.716 92.476)" fill="#709dc9" stroke="#5d2e66" stroke-miterlimit="10" stroke-width="3"/><rect x="122.31" y="108.87" width="24.05" height="20.85" rx="2.18" ry="2.18" transform="rotate(-11.88 134.38 119.343)" fill="#5d2e66" opacity=".1"/><rect x="126.54" y="102.22" width="24.05" height="20.85" rx="2.18" ry="2.18" transform="rotate(-11.88 138.618 112.692)" fill="#fff" stroke="#5d2e66" stroke-miterlimit="10" stroke-width="3"/><rect x="156.5" y="121.46" width="104.55" height="15.1" rx="3.9" ry="3.9" transform="rotate(-11.88 208.86 129.035)" fill="#f2f2f2" stroke="#5d2e66" stroke-miterlimit="10" stroke-width="3"/><rect x="126.12" y="136.49" width="18.39" height="15.94" rx="1.67" ry="1.67" transform="rotate(-11.88 135.356 144.51)" fill="#fff" stroke="#5d2e66" stroke-miterlimit="10" stroke-width="3"/><rect x="162.21" y="148.63" width="104.55" height="15.1" rx="3.9" ry="3.9" transform="rotate(-11.88 214.576 156.25)" fill="#f2f2f2" stroke="#5d2e66" stroke-miterlimit="10" stroke-width="3"/><rect x="131.84" y="163.67" width="18.39" height="15.94" rx="1.67" ry="1.67" transform="rotate(-11.88 141.08 171.677)" fill="#fff" stroke="#5d2e66" stroke-miterlimit="10" stroke-width="3"/><path fill="none" stroke="#a054b2" stroke-linecap="round" stroke-linejoin="round" stroke-width="3" d="M133.3 111.26l6.55 4.17 10.98-16.84"/><path fill="#fff" stroke="#5d2e66" stroke-linecap="round" stroke-linejoin="round" stroke-width="3" d="M289.29 85.19l10.22 21.83 4.49-6.01 5.94 4.44 4.39-5.88-5.95-4.43 4.74-6.35-23.83-3.6z"/><path fill="#7e3d8e" stroke="#5d2e66" stroke-linecap="round" stroke-miterlimit="10" stroke-width="3" opacity=".5" d="M185.31 237.27h-22.5M147.28 237.27h-22.5"/></svg>