<svg xmlns="http://www.w3.org/2000/svg" viewBox="0 0 164.31 93.4"><title>hands</title><path d="M108 84.08V84c-12-3.68-16.13-17.92-16.68-20 .21-2.53 1.45-18.43-.31-25.76a4.73 4.73 0 0 1 3-1.84 5.67 5.67 0 0 1 3.49 1v23.73a1.87 1.87 0 1 0 3.73 0v-45a2 2 0 0 1 .69-1.67c1.16-1 3.52-1.28 5.26-1.28h.09v26.34a2 2 0 0 0 0 .22 1.88 1.88 0 1 0 3.76 0 2 2 0 0 0 0-.22V7.73a2.84 2.84 0 0 1 .97-2.31c1.26-1.09 3.57-1.34 5.25-1.32v35.42a2 2 0 0 0 3.93-.11 2 2 0 0 0-.05-.45V11.74a1.93 1.93 0 0 1 .66-1.57c1.21-1.07 3.84-1.39 5.95-1.37V39a1.94 1.94 0 1 0 3.82.52 1.9 1.9 0 0 0 0-.4V17a.67.67 0 0 1 .26-.57c.94-.86 3.46-1.17 5.63-1.16v54.1s.34 4.62-6.43 7a1.89 1.89 0 1 0 1.19 3.58 15.91 15.91 0 0 0 5.28-2.95l20.74 16.4h6.08c-5.47-4.4-21.23-16.8-24.42-19.31a9.47 9.47 0 0 0 1.29-4.95V11.8l-1.71-.16a20.52 20.52 0 0 0-8 .73v-7l-1.66-.2c-.62-.07-5.38-.57-8.84 1.08V.7l-1.62-.23c-.66-.09-6.51-.82-9.87 2.1a6.61 6.61 0 0 0-2.23 5.16v1.7h-1.47a10.47 10.47 0 0 0-6.38 2.18 5.82 5.82 0 0 0-2 4.5v17a8.47 8.47 0 0 0-3.89-.53 8.78 8.78 0 0 0-6.23 4.11l-.53.76.28.89c.83 2.63 1.17 7.86 1 15.12-.13 5.66-.55 10.48-.56 10.54v.29l.06.29a39.68 39.68 0 0 0 3.93 9.75c3.69 6.55 8.76 11.06 14.71 13.1l7.08 6H119zM6.2 93.4l18.68-15a11.4 11.4 0 0 0 6.88 5.63A1.89 1.89 0 0 0 33 80.55l-.24-.11c-.05 0-5-1.45-5.05-6.13l.2-24.42v-34.1c2.21 0 4.84.3 5.79 1.17a.65.65 0 0 1 .26.55v28.74a8.34 8.34 0 0 0-2.51 2.22l-.07.12a1.86 1.86 0 0 0 3.18 1.94s3.18-4.05 15.57-4.05c8.84 0 13.13 3 14.88 4.72a20.39 20.39 0 0 0-10.51 4.27 14.49 14.49 0 0 0-5 10.73 1.86 1.86 0 0 0 3.49 1 1.89 1.89 0 0 0 .24-.81 10.91 10.91 0 0 1 7.32-10.2A21.43 21.43 0 0 1 68 54.82h1.44C69.62 42 72.4 38.72 74 37.9a4.52 4.52 0 0 1 4.1.48c-1.53 6.55-3.1 23.17-3.33 25.14a32.76 32.76 0 0 1-3.45 12.86C67 84.61 59.65 88.8 49.33 88.83h-.05l-5.35 4.57h6.65l1-.86C64.88 91.73 71.5 84.3 74.73 78a36.42 36.42 0 0 0 3.79-14c.55-5.88 2.27-21.84 3.59-25.86l.45-1.36-1.17-.78c-3.09-2.24-6.37-2.77-9-1.44-2.05 1-3.62 3.06-4.72 6.12V14.47a5.64 5.64 0 0 0-1.91-4.34c-2.28-2-6-2.27-8.27-2.22V7.4a6.63 6.63 0 0 0-2.29-5.19A10.35 10.35 0 0 0 48.93 0a18.7 18.7 0 0 0-3.45.1l-1.62.23v5.48c-3.3-1.54-7.67-1.06-8.24-1L34 5v7.83a21 21 0 0 0-8.11-.75l-1.71.16V49.5l-.2 24.79L0 93.4h6.2zm51.61-81.72h1.27a7.24 7.24 0 0 1 4.14 1.23 1.87 1.87 0 0 1 .64 1.52v31.39a23.43 23.43 0 0 0-6-2.24v-31.9zM47.63 3.77c1.64 0 3.88.23 5.1 1.29a2.86 2.86 0 0 1 .94 2.34v35.53c-1.11-.1-2.28-.16-3.53-.16-.88 0-1.71 0-2.51.05V3.77zm-9.89 13.74v-9c1.75 0 4.17.23 5.35 1.28a2 2 0 0 1 .69 1.67v31.69a30.82 30.82 0 0 0-6 1.35v-27z" fill="#f7f7f7"/></svg>