<svg xmlns="http://www.w3.org/2000/svg" width="370.544" height="385.611" viewBox="0 0 370.544 385.611"><path fill="#FFF" stroke="#FFF" stroke-miterlimit="10" d="M60.512 325.452c6.632 0 12.306-2.06 17.022-6.18l-6.178-6.765c-3.028 2.45-6.622 3.676-10.782 3.676s-7.518-1.267-10.07-3.8c-2.555-2.533-3.843-5.952-3.863-10.257 0-4.017 1.272-7.312 3.816-9.886s5.896-3.872 10.056-3.893c4.078 0 7.693 1.236 10.844 3.707l6.178-6.766c-4.737-4.12-10.41-6.18-17.022-6.18-6.55 0-12.038 2.22-16.466 6.658-4.43 4.44-6.653 9.912-6.673 16.42 0 6.653 2.22 12.188 6.658 16.605 4.44 4.422 9.933 6.64 16.482 6.662zM111.87 279.11v37.692h24.714v8.65H102.6v-46.34zM169.99 312.63c-2.573-2.78-3.86-6.23-3.86-10.35 0-4.117 1.287-7.567 3.86-10.35 2.576-2.78 5.913-4.17 10.01-4.17 4.14 0 7.498 1.39 10.073 4.17 2.574 2.782 3.86 6.232 3.86 10.35 0 4.12-1.286 7.57-3.86 10.35-2.575 2.78-5.912 4.172-10.01 4.172-4.14 0-7.497-1.39-10.072-4.17zm10.042 12.822c6.59 0 12.1-2.215 16.528-6.643 4.428-4.43 6.642-9.938 6.642-16.53 0-6.59-2.214-12.1-6.642-16.526-4.428-4.43-9.938-6.643-16.528-6.643-6.59 0-12.1 2.215-16.528 6.644-4.43 4.428-6.642 9.937-6.642 16.527 0 6.57 2.213 12.075 6.642 16.514 4.428 4.438 9.937 6.658 16.528 6.658zM233.643 279.11v26.878c0 3.502 1.03 6.076 3.09 7.724 2.06 1.648 4.634 2.472 7.724 2.472s5.664-.823 7.723-2.472c2.06-1.647 3.09-4.222 3.09-7.724V279.11h9.27v29.35c0 4.737-1.907 8.755-5.717 12.05-3.81 3.295-8.6 4.94-14.365 4.94-5.767 0-10.556-1.645-14.366-4.94-3.81-3.295-5.715-7.313-5.715-12.05v-29.35h9.266zM289.542 325.45v-46.37h17.856c14.417 0 21.625 7.734 21.625 23.2 0 15.448-7.208 23.17-21.625 23.17h-17.856zm17.856-9.235c8.218-.02 12.337-4.665 12.356-13.934-.02-9.267-4.14-13.9-12.356-13.9h-8.588v27.835h8.588zM78.41 338.77v8.65H62.858v37.69h-9.33v-37.69H37.974v-8.65zM134.533 385.11v-8.65H109.65v-10.535h18.693v-8.62H109.65v-9.885h24.945v-8.65l-34.276.03v46.31zM187.11 368.736h-13.997l7.092-17.61 6.904 17.61zm-20.53 16.374l2.8-7.105h21.15l2.8 7.105 9.922-.03-18.63-46.31h-9.332l-18.662 46.34h9.953zM234.647 385.11v-26.878l13.997 15.447 13.996-15.448.03 26.878h9.332v-46.34h-3.11l-20.248 22.86-20.218-22.86h-3.11v46.34zM311.58 338.77c-3.733 0-7.368 1.24-10.903 3.723-3.536 2.482-5.303 5.772-5.303 9.87 0 4.532 1.555 7.724 4.665 9.577 3.11 1.854 6.53 2.987 10.264 3.398 4.146.412 6.732 1.494 7.76 3.244 1.026 1.75 1.026 3.502 0 5.252-1.027 1.75-3.613 2.626-7.76 2.626-4.978-.412-8.502-1.854-10.576-4.325l-6.22 6.18c2.073 2.06 4.56 3.706 7.465 4.942 2.902 1.235 6.52 1.853 10.854 1.853 4.562 0 8.56-1.338 11.99-4.016 3.433-2.677 5.148-5.87 5.148-9.577 0-4.737-1.607-8.186-4.82-10.35s-6.793-3.45-10.73-3.86c-3.733-.62-6.118-1.545-7.155-2.78-1.037-1.236-1.037-2.73 0-4.48 1.037-1.75 3.422-2.626 7.154-2.626 3.73 0 6.635 1.236 8.708 3.708l6.222-6.18c-2.074-2.058-4.303-3.603-6.688-4.633s-5.745-1.545-10.077-1.545z"/><path fill="none" stroke="#FFF" stroke-width="5.977" stroke-miterlimit="10" d="M367.556 173.57c0-42.406-29.816-77.83-69.62-86.498-13.863-48.588-57.52-84.084-109.266-84.084-62.507 0-113.23 51.786-113.85 115.897-.075 0-.145-.005-.217-.005-39.552 0-71.615 32.062-71.615 71.617 0 39.104 31.335 70.86 70.256 71.586v.035h209.73v-.1c47.063-2.073 84.582-40.873 84.582-88.448z"/><path fill="#FFF" d="M123.743 262.12h-10.535l25.49-21.946 5.174 4.622"/><path fill="none" stroke="#FFF" stroke-width="5.977" stroke-miterlimit="10" d="M117.423 174.467V110.14s15.553-1.95 15.553 7.485v51.94M133.097 171.08v-68.37s15.548-2.223 15.548 8.544v59.086M149.215 172.06v-56.85s15.552-1.89 15.552 7.237v54.52"/><path fill="none" stroke="#FFF" stroke-width="5.977" stroke-miterlimit="10" d="M101.874 178.527V121.7s15.55-1.458 15.55 5.574v47.192"/><path fill="none" stroke="#FFF" stroke-width="5.977" stroke-miterlimit="10" d="M112.945 177.97c-.354.363 5.093-7.692 27.113-7.692 21.62 0 27.747 10.893 27.747 10.893"/><path fill="none" stroke="#FFF" stroke-width="5.977" stroke-miterlimit="10" d="M182.03 200.698s3.157-33.595 5.828-41.704c-.69-.465-19.645-15.502-20.193 27.363M182.045 200.21s-.698 43.02-43.47 43.02"/><path fill="#FFF" d="M55.404 259.514c-4.615-1.273-6.984-2.332-6.984-2.332l51.38-40.826 3.683 4.652s-47.802 38.327-48.08 38.506"/><path fill="none" stroke="#FFF" stroke-width="5.977" stroke-miterlimit="10" d="M168.924 183.486s-25.53-4.96-26.898 21.27M233.547 162.14v-44.515s-15.55-1.95-15.55 7.482v71.252M249.314 162.14v-58.905s-15.767-2.23-15.767 8.54v50.364M265.952 162.14V110.67s-16.446-1.943-16.446 7.462v44.005"/><path fill="none" stroke="#FFF" stroke-width="5.977" stroke-miterlimit="10" d="M281.254 165.952v-45.01s-15.303-1.452-15.303 5.577v35.62"/><path fill="#FFF" d="M318.206 252.963l-40.576-32.135 3.686-4.65s42.603 33.588 42.564 33.714c-2.017 1.253-5.674 3.07-5.674 3.07M257.362 262.12l-29.57-24.94 3.832-4.537 34.95 29.476M230.568 162.488c0-1.65 1.332-2.99 2.982-2.99 1.647 0 2.974 1.34 2.974 2.99 0 1.656-1.326 2.996-2.974 2.996-1.65 0-2.982-1.34-2.982-2.996M265.987 223.29c0-1.65 1.334-2.99 2.984-2.99 1.647 0 2.976 1.34 2.976 2.99 0 1.657-1.33 2.995-2.975 2.995-1.65 0-2.983-1.338-2.983-2.996M215.038 196.422c0-1.633 1.324-2.96 2.954-2.96 1.634 0 2.955 1.327 2.955 2.96 0 1.64-1.32 2.96-2.955 2.96-1.63 0-2.954-1.32-2.954-2.96M139.07 204.756c0-1.633 1.323-2.96 2.956-2.96s2.954 1.327 2.954 2.96c0 1.64-1.32 2.96-2.954 2.96s-2.956-1.32-2.956-2.96M246.34 161.96c0-1.74 1.398-3.155 3.118-3.155s3.12 1.415 3.12 3.154c0 1.744-1.4 3.16-3.12 3.16-1.72 0-3.118-1.416-3.118-3.16M108.9 228.28c.803-1.44 2.61-1.958 4.032-1.16 1.42.794 1.92 2.603 1.116 4.04-.805 1.445-2.613 1.97-4.032 1.17-1.422-.793-1.928-2.605-1.117-4.05M262.847 162.185c0-1.69 1.378-3.06 3.08-3.06 1.702 0 3.08 1.37 3.08 3.06s-1.378 3.063-3.08 3.063c-1.702 0-3.08-1.373-3.08-3.063"/><path fill="none" stroke="#FFF" stroke-width="5.977" stroke-miterlimit="10" d="M218.463 157.532s-9.59-8.73-17.038 1.946c3.47 10.977.744 41.682.744 41.682s6.183 27.572 28.686 34.38M281.264 165.17v43.97s.884 9.66-12.293 14.154M249.505 118.134v44.005M101.874 177.97l-.32 39.333M111.748 229.81s-10.17-2.822-10.194-12.613"/><path fill="#FFF" d="M194.41 54.662c0 1.816-1.475 3.286-3.287 3.286s-3.285-1.47-3.285-3.286v-12.7c0-1.814 1.473-3.284 3.285-3.284s3.287 1.47 3.287 3.285v12.7zM162.127 67.89c1.284 1.285 1.283 3.364 0 4.646-1.28 1.283-3.362 1.283-4.645 0l-8.98-8.983c-1.28-1.28-1.283-3.36 0-4.64 1.284-1.286 3.362-1.286 4.646-.006l8.98 8.983zM220.118 67.89c-1.28 1.285-1.28 3.364 0 4.646 1.282 1.283 3.362 1.283 4.645 0l8.982-8.983c1.28-1.28 1.28-3.36 0-4.64-1.283-1.286-3.363-1.286-4.645-.006l-8.982 8.983z"/></svg>