<?xml version="1.0" encoding="iso-8859-1"?>
<!-- Generator: Adobe Illustrator 16.0.0, SVG Export Plug-In . SVG Version: 6.00 Build 0)  -->
<!DOCTYPE svg PUBLIC "-//W3C//DTD SVG 1.1//EN" "http://www.w3.org/Graphics/SVG/1.1/DTD/svg11.dtd">
<svg version="1.1" id="Capa_1" xmlns="http://www.w3.org/2000/svg" xmlns:xlink="http://www.w3.org/1999/xlink" x="0px" y="0px"
	 width="23.801px" height="23.801px" viewBox="0 0 23.801 23.801" style="enable-background:new 0 0 23.801 23.801;"
	 xml:space="preserve">
<g>
	<path d="M14.924,2.5c0-1.381,1.119-2.5,2.5-2.5s2.5,1.119,2.5,2.5s-1.12,2.5-2.5,2.5S14.924,3.881,14.924,2.5z M8.324,13.5
		l-1.3,1.801h-4.7c-0.7,0-1.4,0.6-1.4,1.301C0.924,17.4,1.525,18,2.324,18h5.5c0.5,0,0.9-0.199,1.2-0.699l1.3-1.898
		C10.224,15.4,8.424,14.201,8.324,13.5z M22.024,10.8l-3.699-0.9l-1.101-3.4c-0.024-0.074-0.071-0.128-0.106-0.192
		c-0.057-0.17-0.172-0.343-0.394-0.508l-1.647-1.099c-0.123-0.129-0.266-0.239-0.451-0.301l-3.801-1.3c-0.299-0.1-0.699-0.1-0.9,0
		l-4.3,2.3c-0.6,0.3-0.8,1-0.5,1.5c0.2,0.4,0.5,0.6,0.9,0.6c0.2,0,0.4,0,0.6-0.1l3.9-2l2.304,0.813L9.824,10.8
		c-0.565,0.97-0.854,1.937-0.264,2.694c0.106,0.197,0.245,0.381,0.465,0.506l3.799,2.8L11.525,21.9c-0.3,0.699,0,1.5,0.7,1.801
		c0.199,0.1,0.4,0.1,0.6,0.1c0.5,0,1-0.301,1.199-0.801l2.7-6.199c0.3-0.5,0.101-1.199-0.399-1.6l-2.973-2.168l2.401-3.896
		l0.671,2.063c0.102,0.4,0.4,0.7,0.801,0.8l4.301,1.1h0.101c0.6,0.102,1.1-0.3,1.198-0.898C23.024,11.5,22.625,10.9,22.024,10.8z"/>
</g>
<g>
</g>
<g>
</g>
<g>
</g>
<g>
</g>
<g>
</g>
<g>
</g>
<g>
</g>
<g>
</g>
<g>
</g>
<g>
</g>
<g>
</g>
<g>
</g>
<g>
</g>
<g>
</g>
<g>
</g>
</svg>
