<svg id="Layer_1" data-name="Layer 1" xmlns="http://www.w3.org/2000/svg" viewBox="0 0 362 234"><defs><style>.cls-1{fill:#f2f2f2;}.cls-2{fill:none;}.cls-2,.cls-3{stroke:#d8d8d8;stroke-linecap:round;stroke-linejoin:round;stroke-width:2px;}.cls-3{fill:#404040;}</style></defs><title>Blog thumbnail</title><rect class="cls-1" width="362" height="234"/><line class="cls-2" x1="156.32" y1="103.19" x2="156.32" y2="119.75"/><polygon class="cls-2" points="161.61 104.07 161.61 117.93 189.8 126.67 189.8 97 161.61 104.07"/><path class="cls-2" d="M161.5,136.75l10.13.25-3.88-7-.52-5.6-5.56-2A14.36,14.36,0,0,0,161.5,136.75Z"/><path class="cls-3" d="M190.73,108.52c-.12,0,0,.09-.12.11s-.23.08-.23.16a1.93,1.93,0,0,1,.34,0c1.35,0,2.46,1.4,2.46,3.13s-1.1,3.13-2.46,3.13c-.18,0,.06-.08-.11-.12,0,.08.39.36.11.36.17,0-.18,0,0,0,1.46,0,2.64-1.51,2.64-3.37S192.19,108.52,190.73,108.52Z"/><line class="cls-2" x1="198.55" y1="118.91" x2="203.12" y2="123.88"/><line class="cls-2" x1="203.32" y1="99.36" x2="198.35" y2="103.93"/><line class="cls-2" x1="197.91" y1="111.84" x2="205.68" y2="111.84"/></svg>