<svg id="Layer_1" xmlns="http://www.w3.org/2000/svg" viewBox="0 0 443.4 176.8"><style>.st0,.st1{fill:#f2f2f2;stroke:#5d2e66;stroke-width:3;stroke-miterlimit:10}.st1{fill:none;stroke-linecap:round}.st2{opacity:5e-2;fill:#5d2e66}.st3{fill:#ffa631}.st3,.st4,.st5,.st6{stroke:#5d2e66;stroke-width:3;stroke-miterlimit:10}.st4{fill:none}.st5{fill:#ffe576}.st6{fill:#fff;stroke-linejoin:round}.st7{opacity:.1;fill:#5d2e66}.st10,.st11,.st8,.st9{stroke-width:3;stroke-miterlimit:10}.st8,.st9{fill:#709dc9;stroke:#5d2e66}.st9{fill:#fff}.st10,.st11{fill:none;stroke:#a054b2;stroke-linecap:round;stroke-linejoin:round}.st11{fill:#fff;stroke:#5d2e66}.st12{opacity:.5;fill:#7e3d8e}.st13{opacity:.2}.st14,.st15{fill:none;stroke:#5d2e66;stroke-width:3;stroke-linecap:round;stroke-linejoin:round}.st15{stroke-dasharray:10.8981,10.8981}.st16{fill:#f7934f}.st16,.st17,.st18{stroke:#5d2e66;stroke-width:3;stroke-miterlimit:10}.st17{stroke-linecap:round;stroke-linejoin:round;fill:none}.st18{fill:#a054b2}.st19{fill:#fff}.st20{opacity:.1}.st21{fill:#5d2e66}</style><path class="st0" d="M179.3 128.9c0-21.3 17.8-47.5 39.7-47.5s39.7 26.2 39.7 47.5c0 38.7-24.5 46.1-39.5 46.1s-39.9-6.5-39.9-46.1z"/><path class="st1" d="M198 135.5s.7-9.4 7.7-9.4 8.1 9.4 8.1 9.4m13 0s.7-9.4 7.7-9.4 8.1 9.4 8.1 9.4"/><path class="st2" d="M201.1 152.3s-.8 7 8.7 10 19.7-.6 19.7-.6 9.4-3.9 9.4-9.6c0-.6-7.7-1.8-18.6-1.8-10.9-.1-19.2 2-19.2 2z"/><path class="st3" d="M230.1 161.2c0 1.5-5.3 3.5-10.4 3.6-5 .1-9.8-1.6-9.8-3.1 0-2.9 4.7-4.9 10.2-4.9s10 1.5 10 4.4z"/><path class="st4" d="M238.9 152.1c2.6 2.6-7.2 13.1-19.6 13.1-12.4 0-20.3-10.8-18.1-13.1 2.3-2.3 35.1-2.6 37.7 0z"/><path class="st5" d="M191.7 103.9c1.6-1.6 41.3 35.8 79.2-2.1 5.7-9.5-10.4-7.1-10.4-7.1s-7.7-20-38.7-22.5c-31-2.4-32.9 20.2-32.9 20.2s-7.9-2.7-15.6 5.1c-11.2 9.6-.4 30.1 5.9 30.1s13-10.6 12.5-23.7"/><path class="st6" d="M57.3 111.8L44.6 53.1c-.7-3.2 1.4-6.5 4.6-7.2l95.1-20.6c3.2-.7 6.5 1.4 7.2 4.6l12.7 58.7c.7 3.2-1.4 6.5-4.6 7.2l-17.8 3.8s.3 9.6 7.5 14.7-16.3 7.6-26.6-10.5l-58.2 12.6c-3.3.7-6.5-1.4-7.2-4.6z"/><path class="st7" d="M158.6 50.8L89.4 65.4c-1.7.4-3.3-.7-3.7-2.4l-1.4-6.6c-.4-1.7.7-3.3 2.4-3.7L156 38.1c1.6-.3 4.3 12.3 2.6 12.7z"/><path class="st8" d="M174.5 43.2l-81 17c-1.8.4-3.6-.8-4-2.6l-1.3-6.1c-.4-1.8.8-3.6 2.6-4l81-17c1.8-.4 3.6.8 4 2.6l1.3 6.1c.3 1.8-.8 3.6-2.6 4z"/><path class="st7" d="M74.8 68.3L62.2 71c-.8.2-1.5-.3-1.7-1.1l-2.2-10.5c-.2-.8.3-1.5 1.1-1.7L71.9 55c.8-.2 1.5.3 1.7 1.1l2.2 10.5c.2.8-.3 1.5-1 1.7z"/><path class="st9" d="M77.5 64l-12.6 2.7c-.8.2-1.5-.3-1.7-1.1L61 55c-.2-.8.3-1.5 1.1-1.7l12.6-2.7c.8-.2 1.5.3 1.7 1.1l2.2 10.5c.2.8-.3 1.6-1.1 1.8z"/><path class="st0" d="M147.7 67.6l-61.9 13c-1.4.3-2.7-.6-3-2l-1-4.7c-.3-1.4.6-2.7 2-3l61.9-13c1.4-.3 2.7.6 3 2l1 4.7c.3 1.4-.6 2.7-2 3z"/><path class="st9" d="M73.6 83.5l-9.6 2c-.6.1-1.2-.3-1.3-.8L61 76.6c-.1-.6.3-1.2.8-1.3l9.6-2c.6-.1 1.2.3 1.3.8l1.7 8.1c.1.6-.2 1.2-.8 1.3z"/><path class="st0" d="M151.5 85.4l-61.9 13c-1.4.3-2.7-.6-3-2l-1-4.7c-.3-1.4.6-2.7 2-3l61.9-13c1.4-.3 2.7.6 3 2l1 4.7c.2 1.3-.7 2.7-2 3z"/><path class="st9" d="M77.3 101.3l-9.6 2c-.6.1-1.2-.3-1.3-.8l-1.7-8.1c-.1-.6.3-1.2.8-1.3l9.6-2c.6-.1 1.2.3 1.3.8l1.7 8.1c.2.6-.2 1.2-.8 1.3z"/><path class="st10" d="M66.4 57.7l4.3 2.7 7.1-11"/><path class="st11" d="M168.4 40.7l6.7 14.2L178 51l3.9 2.9 2.9-3.8-3.9-2.9L184 43z"/><path class="st12" d="M190.7 9.5c-.8-.4-1.8-.1-2.2.7l-2.8 5.7c-.4.8-.1 1.8.7 2.2.8.4 1.8.1 2.2-.7l2.8-5.7c.5-.8.2-1.8-.7-2.2zm-21.5.6c-.3-.9-1.2-1.3-2.1-1-.9.3-1.3 1.2-1 2.1l2 6c.3.9 1.2 1.3 2.1 1 .9-.3 1.3-1.2 1-2.1l-2-6zM203.3 27l-6 2c-.9.3-1.3 1.2-1 2.1.3.9 1.2 1.3 2.1 1l6-2c.9-.3 1.3-1.2 1-2.1-.3-.8-1.2-1.3-2.1-1z"/><path class="st6" d="M334.1 111l-62.5-26.3c-3.2-1.3-4.7-5.1-3.4-8.3l17.1-40.5c1.3-3.2 5.1-4.7 8.3-3.4l62.5 26.3c3.2 1.3 4.7 5.1 3.4 8.3l-17.1 40.5c-1.3 3.2-5.1 4.7-8.3 3.4z"/><path class="st7" d="M317.6 58.3l-23.3 18.6-.8-11.3-10.3-1.3 18.2-13.4"/><path transform="rotate(-67.176 320.958 54.79)" class="st7" d="M317.4 14.5h7.2V95h-7.2z"/><path class="st7" d="M321.2 60.2l1.8 29.7 8.9-6.9 7.9 6.8-2.2-22.5"/><path transform="rotate(22.824 313.27 74.834)" class="st5" d="M305.5 50.2h15.4v49.2h-15.4z"/><path class="st12" d="M399.7 40.7c-.3-.6-1-.8-1.6-.5l-4 2.1c-.6.3-.8 1-.5 1.6.3.6 1 .8 1.6.5l4-2.1c.6-.3.8-1 .5-1.6zM387.1 32c.2-.6-.1-1.3-.8-1.5-.6-.2-1.3.1-1.5.8l-1.4 4.3c-.2.6.1 1.3.8 1.5.6.2 1.3-.1 1.5-.8l1.4-4.3zm12.5 24.1l-4.3-1.4c-.6-.2-1.3.1-1.5.8-.2.6.1 1.3.8 1.5l4.3 1.4c.6.2 1.3-.1 1.5-.8.2-.7-.2-1.3-.8-1.5z"/><path class="st5" d="M320.5 51.2l-23.3 18.6-.8-11.2-10.4-1.3 18.2-13.5m20.4 8.7l1.8 29.8 8.9-7 7.9 6.8-2.3-22.5"/><path class="st6" d="M364 69l-82-34.5c-2.1-.9-3.1-3.4-2.2-5.5l4.8-11.4c.9-2.1 3.4-3.1 5.5-2.2l82 34.5c2.1.9 3.1 3.4 2.2 5.5l-4.8 11.4c-.9 2.1-3.4 3.1-5.5 2.2z"/><path transform="rotate(22.824 327.029 42.147)" class="st5" d="M316.1 31.7h21.8v20.8h-21.8z"/><ellipse transform="rotate(-9.213 348.302 27.027)" class="st5" cx="348.2" cy="27" rx="16.1" ry="7.4"/><ellipse transform="rotate(-35.217 323.44 15.577)" class="st5" cx="323.4" cy="15.6" rx="7.4" ry="16.1"/><ellipse transform="rotate(-54.211 332.453 29.031)" class="st5" cx="332.5" cy="29" rx="3.5" ry="3.5"/><path class="st7" d="M373 61.1l.6-.9c1.9-2.9 4.8-4.7 8.1-5.5.2-3.5-1.4-7.1-4.5-9.3-1.4-1-3-1.6-4.6-1.9-.9 1.4-2.6 2.4-4.3 2.2-1.3 1-3 1.3-4.7.4-.6.5-1.1 1.1-1.6 1.7-3.5 4.9-2.4 11.6 2.5 15.1 1.6 1.2 3.5 1.8 5.4 2 .2-1.6 1.5-3.2 3.1-3.8z"/><ellipse transform="rotate(-54.211 374.987 53.17)" class="st11" cx="375" cy="53.2" rx="10.9" ry="10.9"/><path class="st10" d="M370 52.1l1.5 3.7 9.5-3.7"/></svg>