<svg id="Layer_1" xmlns="http://www.w3.org/2000/svg" viewBox="0 0 443.4 176.8"><style>.st0,.st1{fill:#f2f2f2;stroke:#5d2e66;stroke-width:3;stroke-miterlimit:10}.st1{fill:none;stroke-linecap:round}.st2{opacity:5e-2;fill:#5d2e66}.st3{fill:#ffa631}.st3,.st4,.st5,.st6{stroke:#5d2e66;stroke-width:3;stroke-miterlimit:10}.st4{fill:none}.st5{fill:#ffe576}.st6{fill:#fff;stroke-linejoin:round}.st7{opacity:.1;fill:#5d2e66}.st10,.st11,.st8,.st9{stroke-width:3;stroke-miterlimit:10}.st8,.st9{fill:#709dc9;stroke:#5d2e66}.st9{fill:#fff}.st10,.st11{fill:none;stroke:#a054b2;stroke-linecap:round;stroke-linejoin:round}.st11{fill:#fff;stroke:#5d2e66}.st12{opacity:.5;fill:#7e3d8e}.st13{opacity:.2}.st14,.st15{fill:none;stroke:#5d2e66;stroke-width:3;stroke-linecap:round;stroke-linejoin:round}.st15{stroke-dasharray:10.8981,10.8981}.st16{fill:#f7934f}.st16,.st17,.st18{stroke:#5d2e66;stroke-width:3;stroke-miterlimit:10}.st17{stroke-linecap:round;stroke-linejoin:round;fill:none}.st18{fill:#a054b2}.st19{fill:#fff}.st20{font-family:&amp;apos;DroidSans-Bold&amp;apos;}.st21{font-size:70.8803px}</style><path class="st0" d="M182.6 116.6c0-22.4 17.6-39.9 39.3-39.9s39.3 17.5 39.3 39.9c0 40.7-24.3 48.5-39.1 48.5s-39.5-6.8-39.5-48.5z"/><path class="st16" d="M223.4 132.8c9.8-.4 21.1 10.7 26.8 10.4 5.8-.3 4.6-9.5 10.2-19.9 4.5 4.6 16.2 51.9-36.5 51.9s-44.3-49.4-40.3-51.9c2.1 2.1 5.4 19.9 13.7 19.9s16.2-10.1 26.1-10.4z"/><path class="st17" d="M196.6 118.4s.6-8.4 6.9-8.4 7.3 8.4 7.3 8.4m22.4 0s.6-8.4 6.9-8.4 7.3 8.4 7.3 8.4"/><path class="st18" d="M177.9 125c-3.1 0-5.6-2.5-5.6-5.6v-9.3c0-3.1 2.5-5.6 5.6-5.6 3.1 0 5.6 2.5 5.6 5.6v9.3c.1 3-2.5 5.6-5.6 5.6zm88.1 0c-3.1 0-5.6-2.5-5.6-5.6v-9.3c0-3.1 2.5-5.6 5.6-5.6 3.1 0 5.6 2.5 5.6 5.6v9.3c0 3-2.5 5.6-5.6 5.6z"/><path class="st4" d="M215.1 125h-22.9c-3 0-5.4-2.4-5.4-5.4v-9.7c0-3 2.4-5.4 5.4-5.4h22.9c3 0 5.4 2.4 5.4 5.4v9.7c0 2.9-2.4 5.4-5.4 5.4zm37.1 0h-22.8c-3 0-5.4-2.4-5.4-5.4v-9.8c0-3 2.4-5.4 5.4-5.4h22.8c3 0 5.4 2.4 5.4 5.4v9.8c0 2.9-2.4 5.4-5.4 5.4z"/><path class="st4" d="M177.9 104.4s.3-39.7 43.5-39.7 44.5 39.7 44.5 39.7"/><path class="st19" d="M212.1 86.6c-1.1 0-2-.9-2-2s.9-2 2-2 2 .9 2 2c.1 1.1-.9 2-2 2zM199 98.5c1.7-3.4 4.7-6.6 8.2-8 1.5-.6 2.6-2 2.1-3.7-.4-1.4-2.2-2.7-3.7-2.1-5 2-9.3 5.9-11.8 10.8-1.7 3.4 3.4 6.4 5.2 3zm7 47.4l16-1.3 18.5 3.2-12.6 10.4-14.8-1.9z"/><path class="st3" d="M232.3 154.7c0 1.3-4.7 3.1-9.3 3.2-4.4.1-8.8-1.5-8.8-2.7 0-2.6 4.2-4.3 9.1-4.3s9 1.2 9 3.8z"/><path class="st4" d="M240.1 146.6c2.3 2.3-6.4 11.7-17.4 11.7s-18.1-9.7-16.1-11.7 31.2-2.3 33.5 0z"/><path class="st7" d="M207.2 146.8s-.7 6.3 7.8 8.9 17.5-.5 17.5-.5 8.4-3.4 8.4-8.5c0-.6-6.8-1.6-16.6-1.6s-17.1 1.7-17.1 1.7z"/><path class="st6" d="M353.4 111.7l23.7-69.2c1.3-3.8.6-8.8-3.2-10.1L305.7 7.9c-3.8-1.3-7.9.6-9.3 4.4l-24.4 68c-1.3 3.8.6 7.9 4.4 9.3L297 97s-1.9 11.4-11.2 16.4c-9.3 5 18.3 11.7 33.4-8.4l25.9 9.3c3.8 1.3 7 1.1 8.3-2.6z"/><text transform="rotate(18.87 -107.515 931.843)" class="st7 st20 st21">?</text><text transform="rotate(18.87 -94.897 950.796)" class="st0 st20 st21">?</text><path class="st8" d="M311.9 79.9c.4-1 .8-1.8 1.3-2.5.5-.6 1.1-1 1.8-1.3.7-.3 1.4-.4 2.2-.3.8 0 1.6.2 2.4.5.8.3 1.5.6 2.1 1 .6.4 1.1 1 1.5 1.6s.6 1.3.7 2.1c.1.8-.1 1.7-.4 2.8-.3 1-.8 1.8-1.3 2.4-.5.6-1.2 1-1.8 1.3-.7.3-1.4.4-2.2.4-.8 0-1.5-.2-2.3-.4-.8-.3-1.5-.6-2.2-1.1-.6-.4-1.1-1-1.5-1.6-.4-.6-.6-1.4-.6-2.2-.2-.8-.1-1.7.3-2.7zm4.9-10.8l.8-2.4c.4-1.1.8-2.1 1.4-2.9.5-.8 1.2-1.6 1.9-2.2.7-.7 1.6-1.2 2.6-1.8 1-.5 2.2-1 3.5-1.5 1.2-.4 2.2-.8 3-1.1.8-.4 1.5-.7 2.1-1.2.6-.4 1.1-.9 1.5-1.5.4-.6.7-1.2 1-2 .4-1.2.4-2.4-.2-3.5-.6-1.1-1.7-1.9-3.4-2.5-1.5-.5-3.2-.8-5.2-.7-2 0-4 .2-6.2.5l-.9-8.4c1.1-.2 2.3-.4 3.6-.5 1.3-.1 2.6-.2 3.9-.1 1.3 0 2.6.1 3.9.3 1.3.2 2.5.5 3.7.9 2.2.8 4.1 1.7 5.8 2.9 1.6 1.1 2.9 2.4 3.8 3.9.9 1.5 1.4 3 1.6 4.7.2 1.7-.1 3.5-.7 5.4-.5 1.4-1 2.6-1.7 3.5-.7 1-1.5 1.8-2.4 2.5-.9.7-2 1.4-3.2 1.9-1.2.6-2.6 1.1-4.1 1.7-1.2.4-2.1.8-2.9 1.1-.8.3-1.4.7-1.9 1.1-.5.4-.9.8-1.2 1.3-.3.5-.6 1.1-.8 1.8l-.7 2-8.6-3.2z"/><path class="st12" d="M406.6 11.5c-.8-.9-2.1-.9-2.9-.2l-6 5.4c-.9.8-.9 2.1-.2 2.9.8.9 2.1.9 2.9.2l6-5.4c.9-.7 1-2 .2-2.9zm-25.5-9.3c.1-1.1-.8-2.1-2-2.2-1.1 0-2.1.9-2.1 2l-.4 8c-.1 1.1.8 2.1 2 2.2 1.1.1 2.1-.8 2.2-2l.3-8zm32.1 35.7l-8-.4c-1.1-.1-2.1.8-2.2 2-.1 1.1.8 2.1 2 2.2l8 .4c1.1.1 2.1-.8 2.2-2 0-1.2-.9-2.2-2-2.2z"/><path class="st6" d="M89.9 111.7L66.3 42.4c-1.3-3.8-.6-8.8 3.2-10.1l68.2-24.4c3.8-1.3 7.9.6 9.3 4.4l24.4 68.1c1.3 3.8-.6 7.9-4.4 9.3L146.3 97s1.9 11.4 11.2 16.4c9.3 5-18.3 11.7-33.4-8.4l-25.9 9.3c-3.7 1.3-6.9 1.1-8.3-2.6z"/><path class="st12" d="M36.7 11.5c.8-.9 2.1-.9 2.9-.2l6 5.4c.9.8.9 2.1.2 2.9-.8.9-2.1.9-2.9.2l-6-5.4c-.9-.7-1-2-.2-2.9zm25.5-9.3c-.1-1.1.8-2.1 2-2.2 1.1-.1 2.1.8 2.2 2l.4 8c.1 1.1-.8 2.1-2 2.2-1.1.1-2.1-.8-2.2-2l-.4-8zm-32 35.7l8-.4c1.1-.1 2.1.8 2.2 2 .1 1.1-.8 2.1-2 2.2l-8 .4c-1.1.1-2.1-.8-2.2-2 0-1.2.8-2.2 2-2.2z"/><text transform="rotate(-18.795 344.971 -288.187)" class="st7 st20 st21">?</text><path class="st8" d="M118.4 70.3l-.8-2.4c-.4-1.1-.6-2.2-.7-3.1-.1-1 0-2 .2-2.9.2-1 .5-2 1-3s1.1-2.1 1.9-3.3c.7-1 1.2-1.9 1.7-2.7.4-.8.8-1.5 1-2.2.2-.7.3-1.4.3-2 0-.7-.2-1.4-.5-2.2-.4-1.2-1.2-2.1-2.3-2.7-1.1-.5-2.5-.5-4.3.1-1.5.5-3 1.4-4.5 2.6-1.5 1.2-3.1 2.6-4.6 4.2l-5.8-6.1c.8-.9 1.6-1.7 2.5-2.6.9-.9 1.9-1.7 3-2.5s2.2-1.5 3.3-2.1c1.1-.6 2.3-1.2 3.5-1.6 2.2-.8 4.3-1.2 6.3-1.2 2-.1 3.8.2 5.4.8 1.6.6 3 1.5 4.1 2.8 1.2 1.2 2.1 2.8 2.7 4.7.5 1.4.7 2.7.8 3.8.1 1.2 0 2.3-.3 3.5-.3 1.1-.7 2.3-1.3 3.5-.6 1.2-1.4 2.4-2.2 3.8-.7 1-1.2 1.9-1.6 2.6-.4.7-.7 1.4-.8 2-.2.6-.2 1.2-.2 1.7.1.6.2 1.2.4 1.9l.7 2-8.9 2.6zm2.7 11.6c-.3-1-.5-1.9-.4-2.8.1-.8.3-1.5.6-2.1.4-.6.9-1.1 1.5-1.6.6-.4 1.4-.8 2.2-1.1.8-.3 1.5-.4 2.3-.4.8 0 1.5.1 2.1.3.7.3 1.3.7 1.8 1.3.5.6 1 1.4 1.3 2.4.3 1 .5 1.9.4 2.7-.1.8-.3 1.5-.7 2.2-.4.6-.9 1.2-1.5 1.6-.6.4-1.3.8-2.1 1.1-.8.3-1.6.4-2.4.5s-1.5-.1-2.2-.4-1.3-.7-1.8-1.3c-.3-.6-.7-1.4-1.1-2.4z"/></svg>