<svg xmlns="http://www.w3.org/2000/svg" viewBox="0 0 797.72 386.66"><title>public-header</title><circle cx="690.39" cy="279.33" r="107.33" fill="#5d2e66" opacity=".05"/><circle cx="690.99" cy="279.18" r="96.72" fill="#5d2e66" opacity=".1"/><circle cx="108.92" cy="267.35" r="107.33" fill="#5d2e66" opacity=".05"/><circle cx="109.52" cy="267.2" r="96.72" fill="#5d2e66" opacity=".1"/><path d="M199.81 324.09H12.64A11.17 11.17 0 0 1 1.5 313v-18h209.44v18a11.17 11.17 0 0 1-11.13 11.09z" fill="#fff"/><rect x="594.04" y="224.24" width="142.33" height="100.07" rx="11.16" ry="11.16" transform="rotate(-12.96 665.407 274.356)" fill="#fff" stroke="#5d2e66" stroke-linejoin="round" stroke-width="3"/><path d="M77.37 354.88c10.44 0 8.1-43.64 8.1-43.64a3.07 3.07 0 0 1 2.94-3.18h37.33a3.07 3.07 0 0 1 2.94 3.18s-1.45 43.55 7.48 43.64H77.37z" fill="#fff" stroke="#5d2e66" stroke-miterlimit="10" stroke-width="3"/><path fill="#fff" stroke="#5d2e66" stroke-linecap="round" stroke-miterlimit="10" stroke-width="3" d="M62.76 354.88h88.62"/><path d="M199.81 324.09H12.64A11.17 11.17 0 0 1 1.5 313v-18h209.44v18a11.17 11.17 0 0 1-11.13 11.09z" fill="#f2f2f2"/><rect x="1.5" y="185.98" width="209.44" height="138.12" rx="11.56" ry="11.56" fill="#fff" stroke="#5d2e66" stroke-miterlimit="10" stroke-width="3"/><rect x="13.78" y="227.87" width="38.74" height="54.62" rx="3.13" ry="3.13" fill="#5d2e66" opacity=".1"/><rect x="61.28" y="227.87" width="38.74" height="54.62" rx="3.13" ry="3.13" fill="#5d2e66" opacity=".1"/><rect x="108.92" y="227.87" width="38.74" height="54.62" rx="3.13" ry="3.13" fill="#5d2e66" opacity=".1"/><rect x="155.7" y="227.87" width="38.74" height="54.62" rx="3.13" ry="3.13" fill="#5d2e66" opacity=".1"/><rect x="17.83" y="222.92" width="38.74" height="54.62" rx="3.13" ry="3.13" fill="#fff" stroke="#5d2e66" stroke-miterlimit="10" stroke-width="3"/><rect x="65.17" y="222.92" width="38.74" height="54.62" rx="3.13" ry="3.13" fill="#fff" stroke="#5d2e66" stroke-miterlimit="10" stroke-width="3"/><rect x="17.83" y="222.92" width="38.74" height="54.62" rx="3.13" ry="3.13" fill="#fea0a2" stroke="#5d2e66" stroke-miterlimit="10" stroke-width="3"/><path d="M199.81 324.09H12.64A11.17 11.17 0 0 1 1.5 313v-14.9h209.44V313a11.17 11.17 0 0 1-11.13 11.09z" fill="#f2f2f2" stroke="#5d2e66" stroke-linecap="round" stroke-miterlimit="10" stroke-width="3"/><rect x="113.01" y="222.92" width="38.74" height="54.62" rx="3.13" ry="3.13" fill="#fff" stroke="#5d2e66" stroke-miterlimit="10" stroke-width="3"/><rect x="65.17" y="222.92" width="38.74" height="54.62" rx="3.13" ry="3.13" fill="#fea0a2" stroke="#5d2e66" stroke-miterlimit="10" stroke-width="3"/><circle cx="107.07" cy="311.15" r="6.92" fill="#5d2e66" opacity=".1"/><rect x="113.01" y="222.92" width="38.74" height="54.62" rx="3.13" ry="3.13" fill="#fea0a2" stroke="#5d2e66" stroke-miterlimit="10" stroke-width="3"/><circle cx="107.07" cy="311.05" r="6.92" fill="none" stroke="#5d2e66" stroke-miterlimit="10" stroke-width="3"/><path fill="#7e3d8e" stroke="#5d2e66" stroke-linecap="round" stroke-miterlimit="10" stroke-width="3" opacity=".5" d="M196.09 202.05h-20.88"/><rect x="17.83" y="246.59" width="38.74" height="30.96" rx="2" ry="2" fill="#f2f2f2" stroke="#5d2e66" stroke-miterlimit="10" stroke-width="3"/><rect x="65.42" y="246.59" width="38.74" height="30.96" rx="2" ry="2" fill="#f2f2f2" stroke="#5d2e66" stroke-miterlimit="10" stroke-width="3"/><rect x="113.42" y="246.59" width="37.96" height="30.96" rx="1.98" ry="1.98" fill="#f2f2f2" stroke="#5d2e66" stroke-miterlimit="10" stroke-width="2.97"/><path fill="#7e3d8e" stroke="#5d2e66" stroke-linecap="round" stroke-miterlimit="10" stroke-width="3" opacity=".5" d="M164 202.05h-20.89M142.82 256.89h-20.88M142.82 265.85h-20.88M94.98 256.89H74.1M94.98 265.85H74.1M47.65 256.89H26.76M47.65 265.85H26.76"/><path fill="#fff" stroke="#5d2e66" stroke-miterlimit="10" stroke-width="3" d="M17.83 246.59h38.75M64.57 246.59h38.75M113.87 246.59h38.75"/><rect x="159.42" y="222.92" width="38.74" height="54.62" rx="3.13" ry="3.13" fill="#fff" stroke="#5d2e66" stroke-miterlimit="10" stroke-width="3"/><rect x="159.42" y="222.92" width="38.74" height="54.62" rx="3.13" ry="3.13" fill="#fea0a2" stroke="#5d2e66" stroke-miterlimit="10" stroke-width="3"/><rect x="159.81" y="246.59" width="37.96" height="30.96" rx="1.98" ry="1.98" fill="#f2f2f2" stroke="#5d2e66" stroke-miterlimit="10" stroke-width="2.97"/><path fill="#7e3d8e" stroke="#5d2e66" stroke-linecap="round" stroke-miterlimit="10" stroke-width="3" opacity=".5" d="M189.23 256.89h-20.88M189.23 265.85h-20.88"/><path fill="#fff" stroke="#5d2e66" stroke-miterlimit="10" stroke-width="3" d="M160.28 246.59h38.75"/><path d="M32.23 203A6.72 6.72 0 0 0 19 204.89a4.24 4.24 0 0 0 0 8.47h12.11A5.24 5.24 0 0 0 32.23 203z" fill="none" opacity=".1"/><path d="M33.25 202.9A6.72 6.72 0 0 0 20 204.78a4.24 4.24 0 0 0 0 8.47h12.13a5.24 5.24 0 0 0 1.12-10.35z" fill="#5d2e66" opacity=".1"/><path d="M33.25 202.9A6.72 6.72 0 0 0 20 204.78a4.24 4.24 0 0 0 0 8.47h12.13a5.24 5.24 0 0 0 1.12-10.35z" fill="none" stroke="#5d2e66" stroke-miterlimit="10" stroke-width="3"/><path d="M694.78 357.39a7.24 7.24 0 0 0-14.22 2 4.56 4.56 0 0 0 0 9.13h13a5.64 5.64 0 0 0 1.22-11.13z" fill="none" opacity=".1"/><path d="M695.87 357.28a7.24 7.24 0 0 0-14.22 2 4.56 4.56 0 0 0 0 9.13h13a5.64 5.64 0 0 0 1.22-11.13z" fill="#5d2e66" opacity=".1"/><path d="M695.87 357.28a7.24 7.24 0 0 0-14.22 2 4.56 4.56 0 0 0 0 9.13h13a5.64 5.64 0 0 0 1.22-11.13z" fill="none" stroke="#5d2e66" stroke-miterlimit="10" stroke-width="3"/><path d="M108.88 110.54a3.11 3.11 0 0 0-3.1 3.12v12a3.11 3.11 0 0 0 6.22 0v-12a3.11 3.11 0 0 0-3.12-3.12zM73 129.76a3.11 3.11 0 0 0-4.39 4.41l8.52 8.48a3.11 3.11 0 1 0 4.39-4.41zM144.86 129.61l-8.48 8.52a3.11 3.11 0 1 0 4.41 4.39l8.48-8.52a3.11 3.11 0 0 0-4.41-4.39z" fill="#7e3d8e" opacity=".5"/><g opacity=".2" fill="none" stroke="#5d2e66" stroke-linecap="round" stroke-linejoin="round" stroke-width="3"><path d="M579.79 143.56a27.35 27.35 0 0 0-2.14-5.59"/><path d="M571.19 128.38a60.69 60.69 0 0 0-34.5-19.88" stroke-dasharray="11.59 11.59"/><path d="M531 107.61q-2.9-.33-6-.42"/></g><g opacity=".2" fill="none" stroke="#5d2e66" stroke-linecap="round" stroke-linejoin="round" stroke-width="3"><path d="M186.59 143.56a27.35 27.35 0 0 1 2.14-5.59"/><path d="M195.19 128.38a60.69 60.69 0 0 1 34.5-19.88" stroke-dasharray="11.59 11.59"/><path d="M235.42 107.61q2.9-.33 6-.42"/></g><path fill="#5d2e66" opacity=".1" d="M656.71 251.06L642.6 301.9l-12.83-15.33-16.17 8.83 12.19-38.08M587.123 252.402l138.705-31.92 2.86 12.434-138.703 31.92zM663.79 250.07l33.36 40.89 5.59-19.2 18.35 1.59-26.46-29.97"/><path fill="#ffe576" stroke="#5d2e66" stroke-miterlimit="10" stroke-width="3" d="M644.475 240.054l26.576-6.116 19.517 84.803-26.576 6.117z"/><circle cx="373.95" cy="114.17" r="107.33" fill="#5d2e66" opacity=".05"/><circle cx="374.55" cy="114.02" r="96.72" fill="#5d2e66" opacity=".1"/><path d="M303.41 174.16h96.25c15.82 0 15.82 15.82 15.82 15.82v7" fill="none" stroke="#5d2e66" stroke-linecap="round" stroke-linejoin="round" stroke-width="3"/><path d="M524.2.77a2.07 2.07 0 0 0-2.78.92l-3.6 7.17a2.07 2.07 0 0 0 3.71 1.86l3.6-7.17a2.07 2.07 0 0 0-.93-2.78zM497 1.42a2.07 2.07 0 0 0-3.94 1.3l2.52 7.61A2.07 2.07 0 1 0 499.57 9zM539.9 22.94l-7.61 2.52a2.07 2.07 0 0 0 1.3 3.94l7.61-2.52a2.07 2.07 0 0 0-1.3-3.94zM756.34 140.94a2.07 2.07 0 0 0-2.78.92L750 149a2.07 2.07 0 0 0 3.71 1.86l3.6-7.17a2.07 2.07 0 0 0-.97-2.75zM729.18 141.6a2.07 2.07 0 0 0-3.94 1.3l2.52 7.61a2.07 2.07 0 0 0 3.94-1.3zM772 163.11l-7.61 2.52a2.07 2.07 0 1 0 1.3 3.94l7.61-2.52a2.07 2.07 0 0 0-1.3-3.94z" fill="#7e3d8e" opacity=".5"/><circle cx="358.07" cy="187.16" r="4.01" transform="rotate(-51.62 358.095 187.156)" fill="#fea0a2" stroke="#5d2e66" stroke-miterlimit="10" stroke-width="3"/><path d="M497.78 115.9l-19-89.9a9.26 9.26 0 0 0-10.94-7.12L322.25 49.71a9.26 9.26 0 0 0-7.12 10.94l19 89.85a9.26 9.26 0 0 0 10.94 7.12l27.22-5.84s5.54 13.57-1.29 25.22 27.55.44 30.55-31.28l89.06-18.84a9.26 9.26 0 0 0 7.17-10.98z" fill="#fff" stroke="#5d2e66" stroke-linejoin="round" stroke-width="3"/><path d="M484.53 58.68L378.71 81a4.75 4.75 0 0 1-5.62-3.66l-2.11-10a4.75 4.75 0 0 1 3.66-5.62l105.83-22.36c2.53-.54 6.61 18.78 4.06 19.32z" fill="#5d2e66" opacity=".1"/><rect x="376.47" y="40.55" width="136.74" height="19.75" rx="5.11" ry="5.11" transform="rotate(-11.88 445.005 50.43)" fill="#709dc9" stroke="#5d2e66" stroke-miterlimit="10" stroke-width="3"/><rect x="332.51" y="66.87" width="24.05" height="20.85" rx="2.18" ry="2.18" transform="rotate(-11.88 344.67 77.297)" fill="#5d2e66" opacity=".1"/><rect x="336.74" y="60.22" width="24.05" height="20.85" rx="2.18" ry="2.18" transform="rotate(-11.88 348.907 70.645)" fill="#fff" stroke="#5d2e66" stroke-miterlimit="10" stroke-width="3"/><rect x="366.7" y="79.45" width="104.55" height="15.1" rx="3.9" ry="3.9" transform="rotate(-11.88 419.142 87.037)" fill="#f2f2f2" stroke="#5d2e66" stroke-miterlimit="10" stroke-width="3"/><rect x="336.32" y="94.49" width="18.39" height="15.94" rx="1.67" ry="1.67" transform="rotate(-11.88 345.645 102.463)" fill="#fff" stroke="#5d2e66" stroke-miterlimit="10" stroke-width="3"/><rect x="372.42" y="106.62" width="104.55" height="15.1" rx="3.9" ry="3.9" transform="rotate(-11.88 424.865 114.203)" fill="#f2f2f2" stroke="#5d2e66" stroke-miterlimit="10" stroke-width="3"/><rect x="342.04" y="121.66" width="18.39" height="15.94" rx="1.67" ry="1.67" transform="rotate(-11.88 351.363 129.678)" fill="#fff" stroke="#5d2e66" stroke-miterlimit="10" stroke-width="3"/><path fill="none" stroke="#a054b2" stroke-linecap="round" stroke-linejoin="round" stroke-width="3" d="M343.5 69.25l6.55 4.17 10.98-16.83"/><path fill="#fff" stroke="#5d2e66" stroke-linecap="round" stroke-linejoin="round" stroke-width="3" d="M499.49 43.19l10.22 21.83 4.49-6.01 5.94 4.43 4.39-5.87-5.94-4.44 4.73-6.35-23.83-3.59z"/><path fill="#7e3d8e" stroke="#5d2e66" stroke-linecap="round" stroke-miterlimit="10" stroke-width="3" opacity=".5" d="M395.51 195.27h-22.5M357.49 195.27h-22.5"/><path d="M756.8 335.69h-81.11c-15.82 0-15.82 15.82-15.82 15.82v12.68" fill="none" stroke="#5d2e66" stroke-linecap="round" stroke-linejoin="round" stroke-width="3"/><path fill="#ffe576" stroke="#5d2e66" stroke-miterlimit="10" stroke-width="3" d="M653.46 237.94l-14.11 50.85-12.83-15.34-16.17 8.84 12.19-38.08M660.75 235.59l33.35 40.89 5.59-19.2 18.35 1.59-26.46-29.97"/><rect x="567.35" y="199.87" width="172.23" height="36.79" rx="7.44" ry="7.44" transform="rotate(-12.96 653.67 218.312)" fill="#fff" stroke="#5d2e66" stroke-linejoin="round" stroke-width="3"/><path fill="#ffe576" stroke="#5d2e66" stroke-miterlimit="10" stroke-width="3" d="M630.56 204.708l37.558-8.643 8.238 35.794-37.558 8.643z"/><path fill="#fea0a2" stroke="#5d2e66" stroke-linecap="round" stroke-miterlimit="10" stroke-width="3" d="M537.71 175.95l3.1 13.47M546.34 181.05l-13.47 3.1M558.38 156.8l1.68 7.3"/><ellipse cx="668.26" cy="174.55" rx="28.42" ry="13.08" transform="rotate(-45 668.264 174.556)" fill="#ffe576" stroke="#5d2e66" stroke-miterlimit="10" stroke-width="3"/><ellipse cx="620.9" cy="183.82" rx="13.08" ry="28.42" transform="rotate(-71.01 620.905 183.825)" fill="#ffe576" stroke="#5d2e66" stroke-miterlimit="10" stroke-width="3"/><path fill="#fea0a2" stroke="#5d2e66" stroke-linecap="round" stroke-miterlimit="10" stroke-width="3" d="M563.05 159.57l-7.29 1.68"/><circle cx="529.02" cy="161.93" r="3.9" transform="rotate(-12.96 529.203 161.95)" fill="#fea0a2" stroke="#5d2e66" stroke-linecap="round" stroke-miterlimit="10" stroke-width="3"/><circle cx="567.39" cy="195.09" r="3.9" transform="rotate(-12.96 567.572 195.112)" fill="#fea0a2" stroke="#5d2e66" stroke-linecap="round" stroke-miterlimit="10" stroke-width="3"/><circle cx="545.52" cy="202.15" r="1.97" transform="rotate(-12.96 545.724 202.172)" fill="#5d2e66" stroke="#5d2e66" stroke-linecap="round" stroke-miterlimit="10" stroke-width="3"/><circle cx="555.92" cy="177.39" r="1.97" transform="rotate(-12.96 556.113 177.446)" fill="#5d2e66" stroke="#5d2e66" stroke-linecap="round" stroke-miterlimit="10" stroke-width="3"/><circle cx="647.77" cy="193.77" r="6.14" fill="#ffe576" stroke="#5d2e66" stroke-miterlimit="10" stroke-width="3"/><path d="M739.08 197.95c-.07-.64-.14-1.28-.17-1.92a23.43 23.43 0 0 1 5.9-16.28 19.13 19.13 0 0 0-24.57-6.65 8.07 8.07 0 0 1-3.93 7.65 7.31 7.31 0 0 1-6.27 5.43 19 19 0 0 0-.45 4.09 19.17 19.17 0 0 0 29 16.48 9 9 0 0 1 .49-8.8z" fill="#5d2e66" opacity=".1"/><circle cx="733.76" cy="184.4" r="19.19" fill="#fff" stroke="#5d2e66" stroke-linecap="round" stroke-linejoin="round" stroke-width="3"/><path fill="none" stroke="#a054b2" stroke-linecap="round" stroke-linejoin="round" stroke-width="3" d="M725.48 188.03l5.88 3.74 9.86-15.11"/><path fill="#5d2e66" opacity=".1" d="M84.79 333.25h43.5v-9.16H85.67l-.88 9.16z"/></svg>