<svg xmlns="http://www.w3.org/2000/svg" viewBox="0 0 231.2 249.76"><title>developer</title><circle cx="115.6" cy="134.16" r="115.6" fill="#5d2e66" opacity=".05"/><path d="M181.08 209.15a12.51 12.51 0 0 0-24.6 3.51 7.895 7.895 0 0 0 0 15.79H179a9.76 9.76 0 0 0 2.08-19.3z" fill="none" opacity=".1"/><circle cx="116.24" cy="134" r="104.17" fill="#5d2e66" opacity=".1"/><rect x="28.75" y="56.36" width="174.99" height="180.9" rx="11.49" ry="11.49" fill="#fff" stroke="#5d2e66" stroke-miterlimit="10" stroke-width="3"/><ellipse cx="153.74" cy="95.48" rx="34.33" ry="30.45" fill="none" stroke="#7e3d8e" stroke-miterlimit="10" stroke-width="3.4" stroke-dasharray="12.73 12.73" opacity=".2"/><path d="M123.22 72.5a29 29 0 1 1 58 0c0 30-17.91 35.77-28.85 35.77s-29.15-5-29.15-35.77z" fill="#f2f2f2" stroke="#5d2e66" stroke-miterlimit="10" stroke-width="3.11"/><path d="M153.23 84.42c7.26-.27 15.56 7.92 19.76 7.67s3.42-7 7.51-14.64c3.32 3.36 11.95 38.26-26.89 38.26s-32.68-36.42-29.7-38.26c1.52 1.52 4 14.64 10.1 14.64s11.99-7.4 19.22-7.67z" fill="#f7934f" stroke="#5d2e66" stroke-miterlimit="10" stroke-width="3"/><path d="M133.5 73.84s.48-6.16 5.06-6.16 5.34 6.16 5.34 6.16m16.59 0s.48-6.16 5.06-6.16 5.34 6.16 5.34 6.16" fill="none" stroke="#5d2e66" stroke-linecap="round" stroke-linejoin="round" stroke-width="3"/><rect x="43.15" y="136.46" width="146.18" height="51.7" rx="8.05" ry="8.05" fill="#fff" stroke="#5d2e66" stroke-miterlimit="10" stroke-width="3"/><rect x="44.56" y="80.57" width="56.71" height="3.29" rx="1.47" ry="1.47" fill="#7e3d8e" opacity=".5"/><rect x="44.56" y="90.88" width="56.71" height="3.29" rx="1.47" ry="1.47" fill="#7e3d8e" opacity=".5"/><path d="M152.86 0a2.72 2.72 0 0 0-2.72 2.72v10.51a2.72 2.72 0 0 0 5.43 0V2.72A2.72 2.72 0 0 0 152.86 0zm-31.42 16.74a2.72 2.72 0 0 0-3.84 3.84L125 28a2.72 2.72 0 0 0 3.84-3.84zm62.83 0l-7.43 7.43a2.72 2.72 0 0 0 3.85 3.83l7.43-7.43a2.72 2.72 0 0 0-3.85-3.83z" fill="#7e3d8e" opacity=".5"/><path d="M183 209a12.51 12.51 0 0 0-24.6 3.51 7.895 7.895 0 0 0 0 15.79h22.53A9.76 9.76 0 0 0 183 209z" fill="#5d2e66" opacity=".1"/><path d="M183 209a12.51 12.51 0 0 0-24.6 3.51 7.895 7.895 0 0 0 0 15.79h22.53A9.76 9.76 0 0 0 183 209z" fill="none" stroke="#5d2e66" stroke-miterlimit="10" stroke-width="3"/><rect x="44.56" y="208.56" width="56.71" height="3.29" rx="1.47" ry="1.47" fill="#7e3d8e" opacity=".5"/><rect x="44.56" y="218.87" width="56.71" height="3.29" rx="1.47" ry="1.47" fill="#7e3d8e" opacity=".5"/><rect x="115.6" y="63.53" width="8.32" height="15.14" rx="3.95" ry="3.95" fill="#a054b2" stroke="#5d2e66" stroke-miterlimit="10" stroke-width="3"/><rect x="180.51" y="63.53" width="8.32" height="15.14" rx="3.95" ry="3.95" fill="#a054b2" stroke="#5d2e66" stroke-miterlimit="10" stroke-width="3"/><rect x="126.31" y="63.53" width="24.83" height="15.14" rx="3.78" ry="3.78" fill="none" stroke="#5d2e66" stroke-miterlimit="10" stroke-width="3"/><rect x="153.74" y="63.53" width="24.75" height="15.14" rx="3.77" ry="3.77" fill="none" stroke="#5d2e66" stroke-miterlimit="10" stroke-width="3"/><path d="M119.76 63.53s.25-29.28 32.1-29.28 32.81 29.28 32.81 29.28" fill="none" stroke="#5d2e66" stroke-miterlimit="10" stroke-width="3"/><rect x="143.44" y="47.38" width="3.02" height="3.02" rx="1.43" ry="1.43" fill="#fff"/><path d="M134.45 58.67a13.72 13.72 0 0 1 6.64-6.35c1.46-.6.82-3-.66-2.4a16.28 16.28 0 0 0-8.13 7.49c-.73 1.42 1.42 2.69 2.15 1.26z" fill="#fff"/><path fill="none" stroke="#5d2e66" stroke-linecap="round" stroke-linejoin="round" stroke-width="3" d="M56.69 178.56h120.22v-25.99"/><path fill="none" stroke="#7e3d8e" stroke-linecap="round" stroke-linejoin="round" stroke-width="2.49" d="M68.9 172.22l9.31-9.31 8.21 8.22 17.47-17.47 16.93 16.92 9.92-9.92 10.15 10.15 24.6-24.6"/><path d="M141.34 94.73s-.5 4.61 5.74 6.53 12.92-.38 12.92-.38 6.16-2.53 6.16-6.29c0-.41-5-1.19-12.21-1.19a58.79 58.79 0 0 0-12.61 1.33z" fill="#f7934f" stroke="#5d2e66" stroke-miterlimit="10" stroke-width="3"/><path fill="#fff" d="M140.45 94.07l11.77-.93 13.63 2.33-9.26 7.71-10.92-1.38-5.22-7.73z"/><path d="M159.81 100.6c0 1-3.45 2.27-6.83 2.33s-6.46-1.08-6.46-2c0-1.9 3.09-3.21 6.72-3.21s6.57.98 6.57 2.88z" fill="#ffa631" stroke="#5d2e66" stroke-miterlimit="10" stroke-width="3"/><path d="M165.57 94.59c1.7 1.7-4.71 8.59-12.83 8.59s-13.35-7.12-11.87-8.59 23-1.7 24.7 0z" fill="none" stroke="#5d2e66" stroke-miterlimit="10" stroke-width="3"/></svg>