<svg xmlns="http://www.w3.org/2000/svg" viewBox="0 0 231.2 249.76"><title>user</title><path d="M73.14 209.15a12.51 12.51 0 0 0-24.6 3.51 7.89 7.89 0 0 0 0 15.79h22.51a9.76 9.76 0 0 0 2.09-19.3z" fill="none" opacity=".1"/><circle cx="115.61" cy="134" r="104.17" fill="#5d2e66" opacity=".1"/><circle cx="115.6" cy="134.16" r="115.6" fill="#5d2e66" opacity=".05"/><rect x="28.12" y="56.36" width="174.99" height="180.9" rx="12.09" ry="12.09" fill="#fff" stroke="#5d2e66" stroke-miterlimit="10" stroke-width="3"/><ellipse cx="74.96" cy="88.92" rx="34.33" ry="30.45" fill="none" stroke="#7e3d8e" stroke-miterlimit="10" stroke-width="3" stroke-dasharray="14.55 14.55" opacity=".2"/><path d="M47.15 75.3c0-14.89 12.45-33.24 27.85-33.24s27.81 18.35 27.81 33.24c0 27.09-17.17 32.26-27.66 32.26s-28-4.56-28-32.26z" fill="#f2f2f2" stroke="#5d2e66" stroke-miterlimit="10" stroke-width="3"/><path d="M60.26 79.93s.51-6.57 5.4-6.57 5.7 6.57 5.7 6.57m9.04 0s.51-6.57 5.4-6.57 5.7 6.57 5.7 6.57" fill="none" stroke="#5d2e66" stroke-linecap="round" stroke-miterlimit="10" stroke-width="3"/><rect x="66.46" y="137.37" width="122.25" height="11.25" rx="3.61" ry="3.61" fill="#5d2e66" stroke="#5d2e66" stroke-miterlimit="10" stroke-width="3" opacity=".1"/><path d="M62.44 91.65s-.54 4.92 6.12 7 13.79-.4 13.79-.4 6.57-2.7 6.57-6.72c0-.44-5.38-1.27-13-1.27a62.75 62.75 0 0 0-13.48 1.39z" fill="#5d2e66" opacity=".05"/><path d="M82.77 97.91c0 1-3.68 2.42-7.29 2.49s-6.89-1.15-6.89-2.14c0-2 3.3-3.42 7.17-3.42s7.01 1.04 7.01 3.07z" fill="#ffa631" stroke="#5d2e66" stroke-miterlimit="10" stroke-width="3"/><path d="M88.92 91.5c1.82 1.82-5 9.17-13.69 9.17S61 93.07 62.55 91.5s24.55-1.82 26.37 0z" fill="none" stroke="#5d2e66" stroke-miterlimit="10" stroke-width="3"/><path d="M55.86 57.79c1.12-1.12 28.93 25 55.46-1.49 4-6.63-7.26-5-7.26-5s-5.37-14-27.1-15.72-23 14.12-23 14.12-5.55-1.84-10.96 3.58c-7.83 6.75-.31 21.09 4.15 21.09s9.05-7.43 8.71-16.58" fill="#ffe576" stroke="#5d2e66" stroke-miterlimit="10" stroke-width="3"/><rect x="131.99" y="80.57" width="56.71" height="3.29" rx="1.55" ry="1.55" fill="#7e3d8e" opacity=".5"/><rect x="131.99" y="90.88" width="56.71" height="3.29" rx="1.55" ry="1.55" fill="#7e3d8e" opacity=".5"/><path d="M74.08 0a2.72 2.72 0 0 0-2.72 2.72v10.51a2.72 2.72 0 0 0 5.43 0V2.72A2.72 2.72 0 0 0 74.08 0zM42.66 16.74a2.72 2.72 0 0 0-3.84 3.84L46.25 28a2.72 2.72 0 0 0 3.84-3.84zm62.84 0l-7.43 7.43a2.72 2.72 0 0 0 3.84 3.83l7.43-7.43a2.72 2.72 0 0 0-3.84-3.83z" fill="#7e3d8e" opacity=".5"/><rect x="42.52" y="137.06" width="13.7" height="11.87" rx="1.24" ry="1.24" fill="#fff" stroke="#5d2e66" stroke-miterlimit="10" stroke-width="3"/><rect x="66.46" y="157.52" width="122.25" height="11.25" rx="3.61" ry="3.61" fill="#5d2e66" stroke="#5d2e66" stroke-miterlimit="10" stroke-width="3" opacity=".1"/><rect x="42.52" y="157.21" width="13.7" height="11.87" rx="1.24" ry="1.24" fill="#fff" stroke="#5d2e66" stroke-miterlimit="10" stroke-width="3"/><rect x="66.46" y="178.2" width="122.25" height="11.25" rx="3.61" ry="3.61" fill="#5d2e66" stroke="#5d2e66" stroke-miterlimit="10" stroke-width="3" opacity=".1"/><rect x="42.52" y="177.89" width="13.7" height="11.87" rx="1.24" ry="1.24" fill="#fff" stroke="#5d2e66" stroke-miterlimit="10" stroke-width="3"/><path d="M75 209a12.51 12.51 0 0 0-24.6 3.51 7.89 7.89 0 0 0 0 15.79h22.55A9.76 9.76 0 0 0 75 209z" fill="#5d2e66" opacity=".1"/><path d="M75 209a12.51 12.51 0 0 0-24.6 3.51 7.89 7.89 0 0 0 0 15.79h22.55A9.76 9.76 0 0 0 75 209z" fill="none" stroke="#5d2e66" stroke-miterlimit="10" stroke-width="3"/><rect x="131.13" y="208.56" width="56.71" height="3.29" rx="1.55" ry="1.55" fill="#7e3d8e" opacity=".5"/><rect x="131.13" y="218.87" width="56.71" height="3.29" rx="1.55" ry="1.55" fill="#7e3d8e" opacity=".5"/><path fill="none" stroke="#a054b2" stroke-linecap="round" stroke-linejoin="round" stroke-width="3" d="M46.52 141.96l3.17 3.1 8.09-8.1m-11.26 45.39l3.17 3.1 8.09-8.1"/></svg>